<?xml version="1.0" encoding="utf-8"?>
<!-- Generator: Adobe Illustrator 19.1.0, SVG Export Plug-In . SVG Version: 6.00 Build 0)  -->
<svg version="1.1" id="Layer_1" xmlns="http://www.w3.org/2000/svg" xmlns:xlink="http://www.w3.org/1999/xlink" x="0px" y="0px"
	 viewBox="0 0 200 260" enable-background="new 0 0 200 260" xml:space="preserve">
<g>
	<g>
		<path fill="#6C5133" d="M70.4,14.1c-1.4-0.6-2.8-1.4-3.8-2.6c-1.2-0.5-2.2-1.3-3.1-2.2c-2-2-3.7-8.3-3.2-8.1
			c0.5,0.2,1.6,5.7,3.5,7.6c0.5,0.5,1.3,1.2,1.9,1.3c-0.3-0.6-0.5-1.3-0.7-2c-0.1-0.3-0.1-0.6-0.1-0.9c-0.3-4.4,1.8-6.6,4.2-7
			c1.4-0.3,2.9,0.1,4.1,0.8c1.4,0.8,2.4,2.5,2.8,4.4c0.5,2.6-0.5,5.6-4.1,6.6C71.5,11.9,71.3,12,71,12c-0.9,0.2-1.8,0.2-2.7,0
			c0.7,0.5,1.2,0.7,2.1,1.1c2.4,1,4.8,1.1,6.2,0.9l-0.4,1.7C75.4,15.5,72.9,15.2,70.4,14.1z M70.9,11.2c0.2,0,0.5-0.1,0.7-0.2
			c3.2-0.9,3.9-3.3,3.5-5.7c-0.3-1.7-1.3-3.2-2.4-3.9c-1-0.6-2.4-0.9-3.6-0.7c-2,0.4-3.8,2-3.6,6.2c0,0.3,0,0.6,0.1,0.8
			c0.2,1.2,0.7,2.1,1.4,2.9C68.2,11.3,69.5,11.5,70.9,11.2z"/>
	</g>
	<g>
		<path fill="#6C5133" d="M159,103.7c0,0,7.8,8.7,8.1,23.7c0.3,15-3.2,19.8-5.5,25.4c-2.3,5.6-11.6-11.9-9.2-25.4
			C154.8,113.9,159,103.7,159,103.7z"/>
		<path fill="#FFCB4B" d="M157.5,104.6c0,0,7.8,7.8,8.1,22.8c0.3,15-3.2,20.7-5.5,26.3c-2.3,5.6-11.6-11.9-9.2-25.4
			C153.3,114.9,157.5,104.6,157.5,104.6z"/>
		<g>
			<path stroke="#000000" stroke-width="0.1254" d="M146.2,205.9c-1.8,1-7.5,4.7-6,8c2.4,5.3,3.6,9.9,1.7,12.9
				c-1.9,3-7.3,8.7-19.6,9.9c-13.2,1.3-20.1-3.5-21.9-6.8c-1.8-3.2,0.5-4.4-1.1-10.4c-0.6-2.6-3.6-7.7-6.8-11.9
				c-2.6-3.4-8.8-9-8.8-9s26.3-1.3,39.2,1.3C135.8,202.5,146.2,205.9,146.2,205.9z"/>
			<path fill="#FFCB4B" d="M145.1,205.7c-1.8,1-7.5,4.8-6,8c2.4,5.2,4.2,9.9,2.3,12.8c-1.9,3-7.1,8.5-19.2,9.7
				c-12.9,1.3-19.3-3.2-21-6.3c-1.8-3.2,0.3-4.9-1.2-10.8c-0.6-2.5-3.6-7.5-6.7-11.6c-2.5-3.3-8.7-8.4-8.7-8.4s25.7-1.3,38.3,1.2
				C135.4,202.8,145.1,205.7,145.1,205.7z"/>
			<path fill="#FFC137" d="M139.1,213.7c2.4,5.2,4.2,9.9,2.3,12.8c-1.9,3-7.1,8.5-19.2,9.7c-12.9,1.3-19.3-3.2-21-6.3
				c-1.8-3.2,0.3-4.9-1.2-10.8c-0.6-2.5-3.6-7.5-6.7-11.6c-1.2-1.6-3.2-3.5-5-5.1c1.3,0.4,2.6,0.9,3.8,1.7c2.5,1.7,4.1,3.2,7.1,8.1
				c3.1,4.8,3,12.1,2.7,14.8c-0.3,2.8,3.8,5,7.9,5.8c4,0.8,5.7-1.7,6.4-5.4c0.7-3.8,4.8-4.4,7.8-3.6c3,0.8,3.2,0.5,3.3-1.5
				c0.1-2,3.8-4.3,6.6-4.7c2.8-0.3,4.8,1.4,4.5-0.1c-0.4-1.6-2.7-4.8-8.6-6.6c-5.9-1.8,0-4.2,7.7-5.4c1.6-0.2,2.9-0.5,4-0.7
				c2.2,0.6,3.5,1,3.5,1C143.3,206.7,137.6,210.4,139.1,213.7z"/>
			<g>
				<path stroke="#000000" stroke-width="0.1254" d="M138.6,218.9c1.6,1.1,2.7,2.3,4,4.9c-0.1,0.3-0.3,1.7-0.5,1.9
					c-1.4,2.2-3.2,5.6-9.5,7.8c-0.5-2-2.1-5-2.4-7C128.7,218.8,134.8,216.3,138.6,218.9z"/>
				<path fill="#FFFFFB" d="M138.4,219.2c1.5,1,2.9,2,3.9,4.8c-0.1,0.3,0,1.1-1,2.8c-1.2,2.1-2.7,4.3-8,6.7
					c-0.5-1.9-2.2-4.9-2.6-6.9C129.1,219,134.7,216.6,138.4,219.2z"/>
			</g>
			<path stroke="#000000" stroke-width="0.1254" d="M130.8,227.8c1,2,1.5,4,2.2,5.8c-2,0.9-4.4,1.6-7.2,2.2
				c-1.3,0.3-2.5,0.4-3.7,0.6c-1-2.6-1.8-6.2-0.7-9.1C123,222.5,128.9,224,130.8,227.8z"/>
			<path fill="#FFFFFB" d="M130.4,228.1c1,2,1.5,3.9,2.2,5.6c-1.9,0.8-4.1,1.5-6.7,2c-1.2,0.2-2.3,0.4-3.4,0.5c-1-2.5-1.8-6-0.9-8.8
				C123,222.8,128.6,224.4,130.4,228.1z"/>
		</g>
		<g>
			<path fill="#6C5133" d="M26.7,196.6c-2-0.5-4.9,0.8-7,3.2c-2.1,2.4-2,5.2-3.3,6.8c-1.3,1.6-3.2,2.1-2.6,2.3
				c2.3,0.7,4,0.9,7.4,0.2c3.6-0.8,4.1-2.6,5-4c0.9-1.4,5.6-2.5,7.1-3.4c1.6-0.8-0.4-2.4-1.7-3.4C30.3,197.5,27.8,196.9,26.7,196.6z
				"/>
			<path fill="#E6EFF5" d="M26.4,197.1c-1.9-0.5-4.5,0.7-6.5,3c-1.9,2.2-1.7,5.1-2.9,6.6c-1.2,1.5-2.8,1.9-2.3,2
				c2.1,0.7,3.5,0.6,6.6,0c3.3-0.7,3.8-2.4,4.6-3.7c0.8-1.3,5.1-2.3,6.6-3.1c1.5-0.8-0.3-2.2-1.6-3.1
				C29.7,197.9,27.5,197.3,26.4,197.1z"/>
			<path fill="#6C5133" d="M64.8,195c-3-0.6-8.4,1-12.7,2.9c-4.3,2-10.5,4.1-14.9,4.9c-4.3,0.8-8.7,0.8-10.2,1.8
				c-1.5,1-1.2-1.5,1.8-2.1c3-0.6,1.5-2.3-1.2-3.9c-1.5-0.9-3.7-2.6-1-2.3c4,0.5,6.1,3.3,11.1,3.1c3-0.1,6.2-0.9,8.7-4.4
				c2.5-3.5,2.4-6.3,2.4-6.3L64.8,195z"/>
			<path fill="#FFC137" d="M63.3,193.8c-2.9-0.5-6.4,1.4-10.6,3.3c-4.2,1.9-10.7,4.3-14.8,5.1c-4.2,0.8-8.5,1-10.4,1.8
				c-1.6,0.6-0.9-0.7,2-1.3c2.9-0.6,1.4-2.8-1.2-4.2c-1.4-0.8-3.5-1.7-1-1.5c3.8,0.3,5.5,3.1,10.3,2.9c2.9-0.1,6-0.4,9.3-4.7
				c2.6-3.2,2.4-5.8,2.4-5.8L63.3,193.8z"/>
			<path fill="#FFCB4B" d="M48,195c-0.7,1.4-1.1,1.8-2,2.8c-0.8,0.8-1.7,1.6-3.2,2.2c-1.6,0.6-3.9,1.5-5.7,1
				c-0.9-0.3-1.8-0.8-2.5-1.4c0.9,0.2,1.9,0.4,3.1,0.3c2.9-0.1,6-0.4,9.3-4.7c0.4-0.5,0.7-0.9,0.9-1.3C48.2,194.1,48.2,194.4,48,195
				z"/>
		</g>
		<g>
			<path stroke="#000000" stroke-width="0.1468" d="M109.8,217.3c-2.4,0.5-9.3,2.9-9.3,7.2c0,6.9-0.9,12.5-4.4,15.2
				c-3.5,2.7-11.8,7.2-25.5,4.2c-14.6-3.3-19.6-11.2-19.9-15.6c-0.4-4.3,2.6-4.8,3.9-12.2c0.6-3.2-0.1-10-1.5-15.9
				c-1.1-4.8-5-13.3-5-13.3s28.4,8,40.8,15.6C101.3,210.1,109.8,217.3,109.8,217.3z"/>
			<path fill="#FFCB4B" d="M109.6,217c-2.3,0.5-10.1,2.7-10.1,6.9c0,6.7-0.3,12.7-3.7,15.4c-3.4,2.7-11.5,7.1-24.9,4.1
				c-14.3-3.2-18.8-10.6-19.2-14.8c-0.4-4.2,2.6-5.5,3.9-12.7c0.5-3.1-0.2-9.8-1.5-15.6c-1.1-4.7-5.2-12.7-5.2-12.7
				s27.8,7.8,39.9,15.2C100.8,210.3,109.6,217,109.6,217z"/>
			<path fill="#FFC137" d="M99.4,223.9c0,6.7-0.3,12.7-3.7,15.4c-3.4,2.7-11.5,7.1-24.9,4.1c-14.3-3.2-18.8-10.6-19.2-14.8
				c-0.4-4.2,2.6-5.5,3.9-12.7c0.5-3.1-0.2-9.8-1.5-15.6c-0.5-2.2-1.7-5.1-2.8-7.6c1.2,0.9,2.3,2,3.2,3.3c1.8,2.9,2.8,5.1,3.7,11.7
				c0.9,6.6-2.6,14.8-4.2,17.8c-1.7,3,1.7,7.1,5.5,9.5c3.9,2.4,6.8,0.2,9.4-3.9c2.6-4,7.2-3.2,10-1.3c2.8,1.9,3.1,1.8,4.2-0.5
				c1.1-2.2,6.1-3.5,9.2-2.9c3.1,0.6,4.4,3.4,4.8,1.4c0.4-1.9-0.6-6.4-5.9-10.6c-5.3-4.2,2-4.8,10.7-3.4c1.8,0.3,3.3,0.5,4.6,0.7
				c2,1.5,3.2,2.4,3.2,2.4C107.2,217.5,99.4,219.7,99.4,223.9z"/>
			<path stroke="#000000" stroke-width="0.1468" d="M94.5,231c1.2,1.8,1.9,4.7,2,7.5c-0.3,0.3-0.5,0.5-0.8,0.8
				c-2.5,1.9-7.5,4.8-15.2,5.1c0.4-2.4,0.9-5.3,1.4-7.7C84.1,227.3,91.7,226.7,94.5,231z"/>
			<path fill="#FFFFFB" d="M94.1,231.3c1.1,1.7,1.8,4.6,1.9,7.4c-0.2,0.3-0.5,0.5-0.8,0.7c-2.3,1.9-7,4.7-14.1,5
				c0.4-2.4,0.8-5.2,1.3-7.6C84.4,227.6,91.5,227,94.1,231.3z"/>
			<path stroke="#000000" stroke-width="0.1468" d="M80.8,237.1c-0.3,2.6-1,5-1.4,7.3c-2.6,0-5.4-0.3-8.6-1
				c-1.5-0.3-2.8-0.7-4.1-1.1c0.6-3.3,2.1-7.5,5-10.2C76.4,227.8,81.3,232.1,80.8,237.1z"/>
			<path fill="#FFFFFB" d="M80.2,237.3c-0.3,2.6-1,4.9-1.3,7.1c-2.4,0-5-0.3-7.9-1c-1.3-0.3-2.6-0.7-3.7-1.1
				c0.6-3.2,1.9-7.3,4.6-9.9C76.2,228.2,80.7,232.4,80.2,237.3z"/>
		</g>
		<path stroke="#000000" stroke-width="0.1351" d="M44.1,88.4c-3,6.4-11.8,26.2-11.6,45.4c0.3,29,7.7,42.8,15.1,56.1
			c7.4,13.3,25.5,26.2,46.2,27.6c20.7,1.4,56.5-0.8,66.4-22.6c9.4-20.6,5.7-34.7,1.7-49.3c-3.9-14.6-15.3-27.9-22.2-37
			C132.9,99.3,47.1,82,44.1,88.4z"/>
		<path fill="#FFCB4B" d="M45.4,88c-2.9,6.3-9.6,20.8-10.5,39.9c-1.5,32.2,4.9,42.1,14.2,61.5c10,20.8,21.7,26.1,42,27.4
			c20.3,1.4,59-1.1,68.8-22.7c7.8-17.1,5.3-34.1,1.5-48.6c-3.9-14.5-15.1-27.3-21.9-36.3C132.7,100.1,48.3,81.6,45.4,88z"/>
		<path d="M133.8,111.3c2.8-0.2,5.8-1.5,7.9-2.2c-1.8,1.4-4.3,2.5-7.4,2.7c-3.7,0.3-7.1-0.6-9.1-2.1
			C127.7,110.6,130.2,111.6,133.8,111.3z"/>
		<g>
			<path fill="#1C3647" d="M142.4,151.9c9.5-0.9,18,9.2,19.1,22.6c1.1,13.4-6,24.8-15.9,25.2c-10,0.4-18.7-9.9-19.4-22.9
				C125.5,163.8,132.8,152.8,142.4,151.9z"/>
			<path fill="#FFF8D0" d="M142.4,152.3c9.4-0.8,17.7,9.1,18.8,22.2c1.1,13.2-5.9,24.3-15.7,24.8c-9.8,0.4-18.4-9.7-19.1-22.5
				C125.8,164,133,153.1,142.4,152.3z"/>
		</g>
		<g>
			<g>
				<g>
					<path stroke="#000000" stroke-width="0.1403" d="M41.1,116.2c0,0-8,23.4,16.8,36.2c12.7,6.5,27.3,10.4,27.3,10.4l9.4-33.9
						L41.1,116.2z"/>
					<path fill="#DE5D49" stroke="#000000" stroke-width="0.1403" d="M41.7,116c0,0-7.6,21.8,15,35.2c12.3,7.3,24.9,9.4,24.9,9.4
						l9.4-35.9L41.7,116z"/>
					<path fill="#B81200" stroke="#000000" stroke-width="0.1403" d="M72.2,122.9l-12.3-1.2c-1.6,6.7-3.4,13.1-5.9,17.2
						c-1.8,2.8-4.1,4.7-5.5,5.6c1.9,2.3,6.1,5.4,8.4,6.7c1.1,0.6,2.2,1.3,3.3,1.9c0.4-0.5,0.8-1.2,1.2-1.8
						C64,147.2,68.8,133.2,72.2,122.9z"/>
					<path fill="#CC1500" d="M56.4,149.2c-1.2-0.6-3.4-2-4.5-2.9c-1-0.9-1.1-2.1,0.4-3.6c1.5-1.5,2.2-4.4,3.7-4
						c1.5,0.4,2.9,0.6,4.4,1.2c1.5,0.6,2.6,1.9,2.5,3.2c0,1.3-0.1,2.6-1.2,4.6c-1.1,2-1.3,4-2.7,3.2C57.8,150,56.4,149.2,56.4,149.2
						z"/>
				</g>
				<path fill="#CC1500" stroke="#000000" stroke-width="0.1342" d="M40.5,127.1c0,0-0.1-2.8,0-4.6c0.1-1.8,0.5-3.9,0.5-3.9l3.9,7
					c0,0-1.5,0.3-2.7,0.6C41.3,126.5,40.5,127.1,40.5,127.1z"/>
			</g>
			<path fill="#F5684F" d="M49.3,140.3c0.9-1,3.1-0.5,1.7-2.3c-1.3-1.8-1.6-2.5-3.4-4.5c-1.8-2.1-3.4-5.5-4.4-5.4
				c-1,0.1-1.7-0.3-0.9,2.2c0.8,2.6,1.1,4.7,2.5,7.1c1.4,2.4,2.9,4.8,3.5,4.4C49,141.3,49.3,140.3,49.3,140.3z"/>
		</g>
		<g>
			<g>
				<g>
					<path stroke="#000000" stroke-width="0.1335" d="M145.6,113.8c0,0,10.9,20.6-11.4,34.2c-11.3,7-24.7,11.7-24.7,11.7l-14-30.1
						L145.6,113.8z"/>
					<path fill="#DE5D49" stroke="#000000" stroke-width="0.1335" d="M144.9,113.6c0,0,10.3,19.2-9.9,33.2
						c-10.9,7.6-22.6,10.5-22.6,10.5l-14.3-31.9L144.9,113.6z"/>
					<path fill="#B81200" stroke="#000000" stroke-width="0.1335" d="M116.2,122.3l11.8-2c2.5,5.9,5.1,11.7,8.1,15.1
						c2.1,2.4,4.6,4.1,6.1,4.8c-1.5,2.3-5.1,5.2-7.2,6.6c-1,0.7-2,1.4-3,2c-0.4-0.5-0.9-1-1.4-1.5
						C127.6,143.7,120.9,131.4,116.2,122.3z"/>
					<path fill="#CC1500" d="M134.8,144.9c1.1-0.6,3.3-1.8,4.2-2.7c0.9-0.9,0.7-2-0.9-3.2c-1.6-1.2-2.7-3.8-4.2-3.4
						c-1.4,0.5-1.8-0.6-3.1,0.1c-1.3,0.7-2,3.7-1.7,4.9c0.2,1.2-0.8,2,0.5,3.8c1.3,1.8,1.8,3.5,3,2.7
						C133.9,146.1,134.8,144.9,134.8,144.9z"/>
				</g>
				<path fill="#CC1500" stroke="#000000" stroke-width="0.1277" d="M147.4,123.5c0,0-0.1-2.5-0.4-4.1c-0.3-1.6-1-3.5-1-3.5
					l-2.5,6.7c0,0,1.1,0.1,2.3,0.3C146.8,123.1,147.4,123.5,147.4,123.5z"/>
			</g>
		</g>
		<g>
			<g>
				<path stroke="#000000" stroke-width="0.2007" d="M127.1,229c0,0,0.1,2.7,0.5,5.4c0.4,2.8,2.7,4.7-1.4,5.5
					c-4.1,0.8-4.4,0.2-4.5-2.6c-0.1-2.9-1.1-8.6-1.1-8.6L127.1,229z"/>
				<path fill="#B81200" d="M126.9,229.3c0,0,0,2.5,0.3,5c0.3,2.6,2.3,4.3-1.3,5.1c-3.6,0.8-3.9,0.3-3.9-2.3c0-2.6-0.8-8-0.8-8
					L126.9,229.3z"/>
				<path fill="#CC1500" d="M125,238.7c0.7-0.1,2.3-0.2,2.1-1.3c-0.2-1.1-0.6-2.2-0.5-3.3c0.1-1.1,0-2.9-0.6-3c-0.6,0-1.3,0-2.1-0.1
					c-0.8-0.1-1.1,0.3-1.1,1.6c0,1.3,0.1,2.4,0.2,4c0.1,1.5,0.4,2.4,0.8,2.3C124.3,238.8,125,238.7,125,238.7z"/>
			</g>
			<g>
				<path stroke="#000000" stroke-width="0.1545" d="M117.6,220.6c0,0-6.1,5.3-6.3,7.1c-0.3,1.9-1.8,7.7-2.5,8.1
					c-0.7,0.4-3.2,0.1-4-0.1c-0.8-0.2-0.7-2.2-0.9-4.8c-0.2-2.6,1.4-5.5,2.7-6.9c1.4-1.4,2-2.4,2-2.4L117.6,220.6z"/>
				<path fill="#B81200" d="M116.5,221.1c0,0-5.4,5.1-5.7,6.8c-0.2,1.7-1.5,7-2.2,7.4c-0.6,0.4-2.4,0.1-3.1-0.1
					c-0.7-0.1-1.1-1.3-1.2-3.6c-0.2-2.3,1-5.5,2.2-6.8c1.3-1.3,1.8-2.3,1.8-2.3L116.5,221.1z"/>
				<path fill="#CC1500" d="M109,233.7c0.2-0.8,0.6-2.5,1.1-4.5c0.5-1.9-0.1-3.9-1.3-3.7c-1.1,0.2-1.6-0.9-2.5,1.1
					c-0.8,2-1.2,2.9-1.1,4.3c0.1,1.4,0.4,3.2,1.4,3.4C107.6,234.4,108.8,234.5,109,233.7z"/>
			</g>
			<g>
				<path stroke="#000000" stroke-width="0.1398" d="M91.9,217.6c0,0,1.9,2.5,2.9,5.9c0.6,2.8-0.4,4.1-0.6,4.8
					c-0.2,0.7-0.5,1.3-3.1,0.7c-2.4-0.5-2.5-1-2.3-2.9c0-2,0.6-3.2-0.4-5.5c-1.1-2.3-1.5-2.9-1.5-2.9L91.9,217.6z"/>
				<path fill="#B81200" d="M91.8,218.1c0,0,1.6,2.2,2.6,5.4c0.6,2.6-0.2,3.8-0.3,4.5c-0.1,0.7-0.4,1.2-2.6,0.7
					c-2.1-0.5-2.2-0.9-2.1-2.7c0-1.9,0.5-3-0.4-5c-1-2.2-1.3-2.7-1.3-2.7L91.8,218.1z"/>
				<path d="M94.6,225.4c-0.3,1.1-0.6,1.2-0.9,1.3c-0.2,0.1-1,0.7-0.4,0.4c0.7-0.2,1.4-0.7,1.4-0.7L94.6,225.4z"/>
				<path fill="#CC1500" d="M92.9,220.9c0.7,1.1,0.9,2.5,1,2.6c0.1,1.2,0.4,2-0.4,2.4c-0.8,0.4-1.5,1.8-0.7,1.7
					c0.8-0.1,1.1,0.6,0.4,0.7c-0.7,0.1-2.2-0.2-2.8-0.5c-0.7-0.4-0.7-1.7-0.3-3c0.3-1-0.3-3-0.7-3.9
					C89.2,220.7,92.1,219.6,92.9,220.9z"/>
			</g>
			<g>
				<path stroke="#000000" stroke-width="0.1864" d="M136.2,221.9c1.9,1,3.1,3.6,5.3,5.6c2.3,1.9,4.5,4.4,2.6,5.8
					c-1.9,1.4-3.7,4.2-5.4,0.5c-1.7-3.7-2.2-5.8-5.3-6.9c-3.1-1.1-5-2.3-5-2.3L136.2,221.9z"/>
				<path fill="#B81200" d="M136.6,223.1c1.8,1,2.6,2.7,4.7,4.5c2,1.8,4.2,4.5,2.5,5.4c-1.7,0.9-3.2,3.8-4.8,0.7
					c-1.6-3.1-2-5.7-4.8-6.8c-2.8-1.2-4.5-2.3-4.5-2.3L136.6,223.1z"/>
				<path d="M138.7,230c-1.4-1.1-3.4-2.5-3.4-2.5l0.6,1C135.9,228.5,140.2,231,138.7,230z"/>
				<path fill="#CC1500" d="M139.8,229.9c-2-1.3-3.5-2.1-3.3-2.9c0.1-0.8,0.5-1.8,1.8-0.9c1.4,0.8,3.3,2.5,4.4,4.1
					c1.1,1.6,1.3,2.6-0.2,3.1c-1.5,0.5-1.7,1.1-2.8-0.4c-1.1-1.5-1.7-2.9-1.5-2.7C138.3,230.4,141.8,231.3,139.8,229.9z"/>
			</g>
			<path stroke="#000000" stroke-width="0.2027" d="M120.5,141.8c-0.5,0.6-3.1,15.6-3,24.9c0.2,9.3,2,22.7,3.9,30
				c1.9,7.2,5.4,11.1,10.8,15.8c4.7,4,8,6.7,4.7,11.1c-3.4,4.4-9.2,9.4-20.6,4.5c-11.4-4.9-15.7-9.5-24.2-8.6
				c-6.2,0.6-12.1,1.1-12.1,1.1l18-85.7L120.5,141.8z"/>
			<path fill="#DE5D49" stroke="#000000" stroke-width="0.2007" d="M119.9,142.7c-0.4,0.6-3.1,15.2-3,24.3
				c0.1,9.1,1.8,22.2,3.5,29.2c1.8,7,5.1,10.8,10.3,15.3c4.4,3.9,8.2,7.9,4.9,12.2c-3.3,4.3-9.5,7.8-20.4,3.1
				c-10.9-4.7-14.9-9.1-23.1-8.2c-5.9,0.6-11.6,1.1-11.6,1.1L98.3,136L119.9,142.7z"/>
			<g>
				<path fill="#B81200" stroke="#000000" stroke-width="0.2007" d="M91.4,168.3l3.5-16.5c2.9,1.9,7.9,4.9,12.6,6.1
					c2.8,0.7,6.5-0.3,10-1.2c-0.4,3.4-0.7,7.4-0.7,10.3c0,2.1,0,4.6,0.2,7c-2.1,0.2-4.5,0.2-7.4,0.2
					C104.8,174.2,98.2,171.7,91.4,168.3z"/>
				<path fill="#B81200" stroke="#000000" stroke-width="0.2007" d="M125,217.8c3.5-0.7,4.9-4,5.5-6.4c0,0,0.1,0.1,0.1,0.1
					c4.4,3.9,8.2,7.9,4.9,12.2c-3.3,4.3-9.5,7.8-20.4,3.1c-6.7-2.9-10.8-5.7-14.8-7.2c0.9-0.2,1.9-0.3,2.9-0.2
					C109.4,219.9,119.4,219,125,217.8z"/>
				<path fill="#B81200" stroke="#000000" stroke-width="0.2007" d="M104.6,188.7c5.6,0.5,10.3,0.1,14.1-0.8c0.5,3.2,1,6,1.6,8.3
					c0.6,2.5,1.5,4.6,2.5,6.5c-4.3,1.5-9.2,2.8-13.2,2.6c-5.5-0.2-16.7-1.5-25.4-3.1l3.8-17.7C94.7,186.7,100.7,188.3,104.6,188.7z"
					/>
			</g>
			<path fill="#F5684F" d="M101.1,153.4c0-1,0-2.5,0.4-4.5c0.4-2.1-0.4-4.1,1.5-3.8c1.9,0.3,5.4,1.6,8.4,1.9c3,0.2,6.7,0.1,6.5,0.9
				c-0.3,0.8-0.8,4.4-1.1,6.3c-0.2,1.9-0.4,2.4-3.4,2.7c-2.9,0.3-5.6,0.5-8.6-0.6C102,155,101.1,153.4,101.1,153.4z"/>
			<path fill="#CC1500" d="M100.3,170.9c1.1,0.4,5.6,1.3,8.5,1.6c2.9,0.3,6.8,0.3,6.7-1.4c-0.1-1.8-0.2-5.9-0.1-8.1
				c0.2-2.5,0-4-0.8-3.6c-0.8,0.3-3.8,0.9-6,0.3c-2.3-0.6-5.5-1.3-6.1-1.7c-0.6-0.4-1.2-0.6-1.6,1.5c-0.4,2.1-0.1,4.4-0.8,6.9
				C99.5,168.7,100.3,170.9,100.3,170.9z"/>
			<path fill="#CC1500" d="M118.8,196.8c-0.2-1.2-0.6-2-0.7-3.4c-0.1-1.3,0.1-4.2-0.7-4c-0.7,0.2-5.9,0.9-8.4,0.6
				c-2.6-0.3-6.2,0-8.6-0.6c-2.4-0.6-4.4-1.9-4.6-0.4c-0.2,1.5-0.2,3.7-0.8,6.3c-0.7,2.6-1.5,6.6-1.7,6.8c-0.1,0.2,4.1,1.3,6.9,1.4
				c2.8,0.1,10.1,1.1,13.9,0.3c3.8-0.8,7.6-0.9,6.6-3C119.6,198.6,118.8,196.8,118.8,196.8z"/>
			<path fill="#F5684F" d="M113,187.4c0.8,0,3.1-0.6,3.1-1.8c0-1.2-0.2-3.5-0.2-5.3c0-1.7-0.3-4.6-1.1-4.6c-0.8,0-3.4,0.3-5.1,0
				c-1.8-0.3-4.1-0.4-6.1-0.7c-2.2-0.4-5.1-2.2-5.4-0.5c-0.3,1.6-0.6,3.6-1.3,6.3c-0.7,2.6,0.2,5.1,2.5,5.6
				C101.8,186.7,113,187.4,113,187.4z"/>
			<path fill="#F5684F" d="M123.3,215.9c1.1-0.2,2-0.8,2.8-1.3c0.7-0.5,2-1.6,1-2.7c-1-1.2-2.8-3.1-3.4-4.4
				c-0.6-1.3-1.5-3.1-2.1-2.7c-0.6,0.4-3.1,1.1-7.3,1.7c-4.2,0.6-5.3,0.4-9.1-0.2c-3.8-0.6-5.8-0.3-7.3-0.6c-1.5-0.3-3.9-1-4.2,0.3
				c-0.3,1.3-0.3,2.6-1.1,5c-0.8,2.4-0.7,3.5-0.8,4.1c-0.2,2.1,1.5,1.8,3.8,1.7c2.4-0.1,5.3,0.3,8.4,0.8c3.1,0.5,8.5,0.2,12.6-0.6
				C120.8,216.2,123.3,215.9,123.3,215.9z"/>
			<path fill="#CC1500" d="M112.1,221.6c0.8,0,4-0.1,7.4-0.6c2.6-0.4,7.5-1.5,9.4-3.1c2.1-1.7,2.7-3.7,3.3-3.2
				c0.6,0.5,2.8,2.6,2.8,4.4c0,1.8-1.2,4.6-2.6,5.7c-1.3,1.1-4.5,3.7-9.5,2.9c-5.1-0.8-7.3-2.5-10-3.4c-2.7-1-6.9-3-5-2.9
				C109.9,221.5,112.1,221.6,112.1,221.6z"/>
		</g>
		<g>
			<g>
				<path stroke="#000000" stroke-width="0.1788" d="M44.2,243.6c0,0-6,0.3-7,1.4c-1,1.1-4.6,3.9-5.3,3.7c-0.7-0.2-2.2-2.1-2.8-2.8
					c-0.6-0.8-0.3-1.9,0.9-3.5c1.2-1.6,4-2.6,5.6-2.5c1.7,0,2.6-0.3,2.6-0.3L44.2,243.6z"/>
				<path fill="#B81200" d="M43.3,243.3c0,0-5.6,0.5-6.5,1.4c-0.9,1-4.2,3.6-4.9,3.4c-0.7-0.2-2.1-1.8-2.7-2.4
					c-0.6-0.7-0.4-1.7,0.7-3.1c1.1-1.4,3.6-2.4,5.2-2.4c1.5,0,2.4-0.3,2.4-0.3L43.3,243.3z"/>
				<path fill="#CC1500" d="M32,247.2c0.7,0.2,1.8-1.2,3.1-2.1c1.2-0.9,4.3-1.5,3.7-2.1c-0.6-0.6-1.3-0.7-2.2-1.3
					c-0.9-0.5-1.5-1.2-3.2-0.6c-1.7,0.6-2.4,0.8-3,1.7c-0.6,0.9-1.2,2.2-0.4,3.1C30.8,246.6,32,247.2,32,247.2z"/>
			</g>
			<g>
				<path stroke="#000000" stroke-width="0.1788" d="M31.1,236.5c0,0-4.2,1.5-6.1,1.8c-1.9,0.3-4.5-0.3-5,0.9
					c-0.4,1.3-1.1,4.3-2.3,4c-1.2-0.3-5-2.1-5-2.1s1-2.2,2.9-3.8c1.9-1.6,4.5-1.4,6.4-1.9c1.8-0.6,2.5-1.4,2.5-1.4L31.1,236.5z"/>
				<path fill="#B81200" d="M31.1,236.5c0,0-4.1,1.1-6,1.4c-1.9,0.3-4.8-0.4-5.2,0.8c-0.4,1.3-1.2,4.4-2.4,4.1s-4.4-1.9-4.4-1.9
					s0.5-1.8,2.3-3.4c1.9-1.6,5.1-1.7,7-2.2c1.8-0.6,2.2-1.5,2.2-1.5L31.1,236.5z"/>
				<path fill="#CC1500" d="M17.7,242.1c0.9-0.5,0.8-1.9,0.9-2.7c0.2-0.8,0.6-1.7,1.1-1.8c0.9-0.2,1.9,0.1,2.9-0.1
					c0.8-0.1,1.7,0,2.2-0.2c0.6-0.2,0.5-0.7-0.5-1c-1-0.3-1.6-0.8-2-0.8c-0.5,0.1-3,0.5-4.3,0.9c-1.3,0.4-2.1,0.9-2.9,1.8
					c-0.7,0.9-1.8,2.1-1,2.6C15,241.3,16.8,242.6,17.7,242.1z"/>
				<path d="M21.4,238.1c-1,0-2.6,0.1-1.8,0.2c0.8,0.1,1.4,0.2,1.4,0.2L21.4,238.1z"/>
			</g>
			<g>
				<path stroke="#000000" stroke-width="0.3288" d="M67.6,251c0,0-2.7,2.5-3.7,4.2c-1,1.7-3.1,4.3-4.5,4.7c-1.4,0.4-1.4,0-2.7-1.3
					c-1.4-1.4-2.4-1.9-0.8-3.1c1.6-1.3,4.9-2.9,5.7-4.9c0.8-2,1.7-4.7,1.7-4.7s1,0.2,2.3,1.8C66.9,249.2,67.6,251,67.6,251z"/>
				<path fill="#B81200" d="M67.6,251c0,0-2.6,1.7-3.6,3.4c-1,1.7-3.2,5-4.5,5.5c-1.4,0.4-1.1-0.3-2.5-1.6c-1.4-1.4-2.4-1.6-0.8-2.9
					c1.6-1.3,4.6-2.8,5.4-4.9c0.8-2,1.7-4.7,1.7-4.7s1,0.2,2.3,1.8C66.9,249.2,67.6,251,67.6,251z"/>
				<path fill="#CC1500" d="M61.9,251.7c0.2-0.2,3.2,0.3,3,0.5c-1.3,1.2-3.2,4.8-4,5.6c-1.1,1.2-1.5,1.8-2.5,1
					c-0.9-0.9-2.8-2.2-1.3-2.9C58.2,255.3,60.2,253.2,61.9,251.7z"/>
			</g>
			<g>
				<path stroke="#000000" stroke-width="0.1634" d="M55,247.4c0,0-1.1,3.1-4,6.1c-2.6,2.3-4.8,2.3-5.7,2.7c-0.9,0.3-1.8,0.4-3.3-2
					c-1.4-2.2-0.9-2.6,1.3-3.7c2.2-1.3,4-1.6,5.6-3.8c1.6-2.4,2-3.1,2-3.1L55,247.4z"/>
				<path fill="#B81200" d="M54.3,247.7c0,0-1.1,2.8-3.7,5.5c-2.4,2.1-4.3,2.3-5.2,2.6c-0.8,0.3-1.6,0.4-2.8-1.7
					c-1.2-2-0.7-2.3,1.3-3.4c2-1.2,3.6-1.6,5.1-3.6c1.5-2.2,1.9-2.8,1.9-2.8L54.3,247.7z"/>
				<path d="M48.5,254.7c-0.8,0.2-1.7,0-2-0.1c-0.3-0.1-1.5-0.3-0.7,0.1c0.8,0.4,1.9,0.7,1.9,0.7L48.5,254.7z"/>
				<path fill="#CC1500" d="M52.5,249.7c-0.7,1.3-2.2,3-2.3,3.1c-1.2,0.8-1.8,1.6-2.9,1.2c-1.1-0.4-3.2,0-2.5,0.6
					c0.7,0.6,0.3,1.3-0.4,0.8c-0.7-0.5-1.6-1.8-1.7-2.6c-0.1-0.8,1.2-1.7,2.9-2.2c1.3-0.4,3-2.2,3.7-3.1
					C49.5,247.3,53.2,248.3,52.5,249.7z"/>
			</g>
			<g>
				<path stroke="#000000" stroke-width="0.1487" d="M12.3,231c0,0-1,1.2-2.2,2.5c-1.3,1.3-3,3.1-3.5,4.3C6,239,5.7,240.5,4.3,240
					c-1.4-0.6-1-2.6-3.5-3.2c-1.1-0.3-1-1.4,0.5-2.6c1.5-1.2,2.6-2.1,4-3.8c1.4-1.7,2.9-3.1,2.9-3.1L12.3,231z"/>
				<path fill="#B81200" d="M12,231.2c0,0-1.3,0.8-2.6,2.1c-1.3,1.3-2.5,2.6-3,3.8c-0.5,1.2-0.6,2.9-2.1,2.3
					c-1.4-0.6-0.8-2.1-3.3-2.7c-1.1-0.3-1.2-1,0.4-2.3c1.5-1.2,2.7-2.3,4.1-4c1.4-1.7,3-3.2,3-3.2L12,231.2z"/>
				<path d="M2.4,237.5c0.9,0.4,3.1-0.4,2.3-0.3c-0.7,0.1-1.6,0-2.1-0.1c-0.5-0.1-0.9-0.1-0.9-0.1L2.4,237.5z"/>
				<path fill="#CC1500" d="M5.2,232.3c0.8-0.8,2-2.2,2.5-1.4c0.5,0.8,1.5,1.4,1.7,1.5c0.2,0.1-0.3,0.6-1.1,1.4
					c-0.8,0.8-1.7,2.3-2.1,3.1c-0.3,0.8-0.8,2.1-1.4,2c-0.6-0.1-1.6-0.4-0.8-0.8c0.8-0.4,2.1-1.8,1.2-1.5c-0.9,0.3-1.5-0.2-2.5-0.3
					c-0.9-0.1-2.3-0.3-1.7-0.7C1.7,235.1,4.4,233,5.2,232.3z"/>
			</g>
			<g>
				<path stroke="#000000" stroke-width="0.1788" d="M74,201.4c0,0-12.7,7.7-20.6,10.3c-7.9,2.6-13,4.3-25.7,7
					c-12.7,2.7-23.1,6.7-20.2,10.9c2.9,4.3,15.9,4,27,10c11.1,6,21.6,11.1,28.1,11.3c6.5,0.2,10.2,2.6,16.2-4.4
					c6-6.9,10.9-12.5,15.4-15.6c5.4-3.7,7.9-4.9,7.9-4.9L74,201.4z"/>
				<path fill="#DE5D49" stroke="#000000" stroke-width="0.1788" d="M73.6,201.8c0,0-12.2,7.6-19.9,10.2c-7.7,2.6-13.1,4.1-25.6,6.8
					c-12.5,2.7-22.6,6.5-19.8,10.7c2.9,4.2,15.6,3.9,26.5,9.8c10.9,5.8,21.2,10.9,27.6,11.1c6.4,0.2,10,2.5,15.9-4.3
					c6.5-7.5,10.7-12.3,15.1-15.3c5.3-3.6,7.8-4.9,7.8-4.9L73.6,201.8z"/>
				<path fill="#B81200" stroke="#000000" stroke-width="0.1788" d="M54.8,211.6c7.7-2.9,18.9-9.8,18.9-9.8l27.6,24.2
					c0,0-2.5,1.3-7.8,4.9c-0.6,0.4-1.3,0.9-1.9,1.4c-7.6-5.1-23.6-14.2-24.3-14.8C62.6,213.6,58.9,212.6,54.8,211.6z"/>
				<path stroke="#000000" stroke-width="0.1788" d="M73.2,221.2c-1.9-1.4-3.9-2.6-5.8-3.8c0.4-1,0.8-2.4,1.2-4.2
					c1.9-7.8-0.5-23.8-0.1-39.9c0.4-16.1-2.1-23.2-0.5-33.7c1.6-10.5,2.1-16.4,2.1-16.4L92.8,139c0,0,5,18.4,7.5,33.5
					c2.5,15.1,5.3,36.9,5.5,43.4c0.2,6.5,2.3,7.8-6.7,12c-4.5,2.1-8,5.1-10.5,7C85.1,231,79.8,225.7,73.2,221.2z"/>
				<path fill="#B81200" d="M73.5,221.1c-2.2-1.5-3.9-2.3-5.7-3.5c0.4-1,0.9-2.7,1.3-4.5c1.8-7.8-0.4-23.8,0-39.9
					c0.4-16.1-2-23.2-0.5-33.7c1.5-10.5,2-16.4,2-16.4L92.3,139c0,0,4.8,18.4,7.1,33.5c2.3,15.1,5.2,36.9,5.5,43.4
					c0.2,6.5,1.7,7.5-6.9,11.6c-4.3,2.1-6.9,5.1-9.3,7C85.3,230.6,79.9,225.6,73.5,221.1z"/>
				<path fill="#DE5D49" stroke="#000000" stroke-width="0.1788" d="M74.6,168.8c-2,0.1-4,0.3-5.6,0.5c-0.2-6.3-0.4-10.8-0.7-15
					c4.7-0.1,10.4,0.2,15.9,1.3c5.1,1.1,9.7,3,13.2,4.8c0.8,4,1.3,6.3,1.9,10.3c0.1,0.9,0.6,3.7,0.7,4.7
					C93.2,172,83.5,168.2,74.6,168.8z"/>
				<path fill="#DE5D49" stroke="#000000" stroke-width="0.1788" d="M91.7,191.4c4.7,1.3,8.5,2.7,11.1,3.8c1.2,9.1,2,15.8,2.1,19.3
					c0,0.6,0,2.7,0.1,3.2c-4.2-2.9-11-7.3-18.5-9.6c-6.3-2-12.5-3.8-16.9-5.1c0-4.5-0.3-9.9-0.5-15.5
					C75.9,188.1,84.4,189.3,91.7,191.4z"/>
				<path fill="#CC1500" d="M94.9,157.8c-1.8-0.7-6.2-2.8-11-3.5c-4.8-0.7-7.7-1.1-10.4-1.1c-2.7,0-3.5,0.4-3.6-3.8
					c-0.1-4.2-1.4-7.4,1.9-5.5c3.3,1.8,4.9,2.5,9.9,3.2c5,0.7,6.9,1.1,9.8,2.3c2.1,0.9,2.6,1.7,3,4.5
					C94.8,156.2,94.9,157.8,94.9,157.8z"/>
				<path fill="#CC1500" d="M100.2,188.4c-0.3-2.8-0.9-7.2-1-9.1c-0.1-1.8,1.2-3.1-2.5-4.4c-3.7-1.3-6-2.2-9.9-3.4
					c-3.8-1.2-6.9-1.6-10.2-1.2c-3.4,0.4-5.2-0.5-5.4,2.1c-0.2,2.6,0.2,5.4,0,8.5c-0.2,3.1,1.4,4.8,7.1,6.1c5.7,1.3,11,0.9,15.3,2.7
					c4.4,1.8,7.9,4.2,7.4,2.3C100.5,190.1,100.2,188.4,100.2,188.4z"/>
				<path fill="#CC1500" d="M89.4,229.9c1.9-1.6,7.1-3.4,4.5-4.7c-2.5-1.3-6.1-3.4,0.1-3.1c6.1,0.3,8.5-0.8,7.7-2.6
					c-0.8-1.8-1.1-3.2-5.9-5c-4.7-1.8-6.9-3-12.5-5.2c-5.6-2.2-10.8-5.2-11.2-2.4c-0.4,2.8-0.2,7.7-0.9,8.8c-0.7,1.1-0.9,0.3,4.8,5
					C81.8,225.5,89.4,229.9,89.4,229.9z"/>
				<path d="M105.1,221.3c-1.1,2-2.7,2.4-5.1,2.6c-2.4,0.2-7.9,0.5-3.1,0.7c3.9,0.2,8-0.5,8-0.5L105.1,221.3z"/>
				<path fill="#F5684F" d="M95.4,169.5c1-1.2,0.7-3.7,0.4-5.6c-0.3-1.8-1.3-4-5.3-5c-4-1-6.8-2.2-10.5-2.6c-3.7-0.4-8.5-1-8.4,0.6
					c0.1,1.5,0.4,4,0.4,5.6c0,1.5-0.4,3.7,2.6,3.8c3,0.1,6.4-0.1,10.6,0.6C89.4,167.6,94.4,170.8,95.4,169.5z"/>
				<path fill="#F5684F" d="M101.2,210.7c1.6-1.6,1.1-5.6,0.8-8.8c-0.3-3.2,0.6-6-5.6-7.5c-6.2-1.4-8.8-2.6-13.5-3.6
					c-4.7-1-11.1-2.4-11.1-1c0,1.4,1.3,4.2,0.7,6.9c-0.6,2.8-0.9,4.2,2.9,5.5c3.9,1.3,8.3,2.3,14.7,4.4
					C96.4,208.7,99.6,212.3,101.2,210.7z"/>
				<path fill="#B81200" stroke="#000000" stroke-width="0.1788" d="M28.1,218.8c0.4-0.1,0.7-0.1,1-0.2c7.1,2.5,16.1,5.9,24.1,9.5
					c10.1,4.5,20.3,11.6,26.6,16.4c-0.5,0.6-1,1.1-1.5,1.7c-5.9,6.8-9.5,4.5-15.9,4.3c-6.4-0.2-16.7-5.3-27.6-11.1
					c-10.9-5.9-23.6-5.6-26.5-9.8C5.5,225.3,15.7,221.5,28.1,218.8z"/>
				<path fill="#CC1500" d="M66.9,213.3c0.5-0.9,0.8-1.3,1-3c0.3-1.7,0.6-4.2,0-3.8c-0.6,0.4-1.3,1.3-2.9,1.7
					c-1.7,0.4-6.6,2.5-4.8,3.2c1.7,0.7,5.3,3.5,5.9,3.2C66.6,214.3,66.9,213.3,66.9,213.3z"/>
				<path fill="#F5684F" d="M86.2,234.9c0.1-1.2-7.9-7.9-10.3-9.9c-2.5-2.1-8.3-5.6-11.2-7.3c-2.9-1.8-8.7-4.1-9.9-3.7
					c-1.2,0.4-5.9,1.9-9.5,2.9c-3.6,0.9-10.5,2-9.2,2.6c1.3,0.6,16.5,6.4,21.9,9.3c5.5,2.9,10.2,5.5,15.6,9.2c3.6,2.4,6.1,5,7,3.9
					C82.1,239.8,86.1,236.2,86.2,234.9z"/>
				<path fill="#CC1500" d="M66.5,249.3c1.9,0.1,4.9-0.6,6.4-2.1c1.5-1.5,2.5-3.7,0.2-5.5c-2.2-1.7-8-5.7-10.4-7.4
					c-2.5-1.7-13-6.1-15.6-7c-2.6-0.9-8-3.2-10-4.1c-2-0.9-8-3.1-9.7-2.7c-1.7,0.4-6,2.3-9.5,3.5c-3.6,1.2-6.3,2.4-5.6,4.4
					c0.7,2,7.4,4.2,12.7,5.5c5.3,1.3,21.7,9.3,26.8,11.9C56.8,248.5,66.5,249.3,66.5,249.3z"/>
			</g>
		</g>
		<g>
			<path stroke="#000000" stroke-width="0.1778" d="M147.3,70c0,0,11.9,5.3,14,21.4c0.9,6.7,0,22.9-7.3,30.5
				c-7.4,7.6-20.1,14.8-28.8,18.3c-29.2,11.7-43.5,2.1-47.8,0.2c-4.3-1.8-13.8-3.1-20.3-7.1c-9.5-5.8-16.9-4.4-21.3-10.3
				c-4.3-5.9-10.2-16.1-4.7-28.4c5.5-12.3,20.8-24.8,20.8-24.8L147.3,70z"/>
			<path fill="#CC1500" d="M146.7,71.1c0,0,11.7,5.2,13.8,20.8c0.9,6.5,0,22.3-7.2,29.7c-7.2,7.4-19.8,14.4-28.4,17.8
				c-28.7,11.4-42.8,2-47.1,0.2c-4.2-1.8-13.6-3-20-6.9c-9.4-5.6-16.7-4.3-20.9-10c-4.3-5.7-10.1-15.7-4.6-27.6
				c5.4-11.9,20.9-25.7,20.9-25.7L146.7,71.1z"/>
			<path fill="#D65845" stroke="#000000" stroke-width="0.1778" d="M72.9,84c0,0-21.4-2.7-28.1-1.7c-1.8,0.3-4.1,1.2-6.1,2.2
				c6.4-8.2,14.4-15.2,14.4-15.2l8.4,0.2C68.7,75,72.9,84,72.9,84z"/>
			<path fill="#F5684F" stroke="#000000" stroke-width="0.1778" d="M30.2,100.9c2-1.8,5-3.4,8.7-4.2c11.6-2.6,16.4-1.7,16.4-1.7
				l5.7,15.1c0,0-11.5-3.4-19.1,2.7c-2.9,2.4-5.5,4.7-7.6,6.6C31.6,114.7,28.9,108.2,30.2,100.9z"/>
			<path fill="#F5684F" stroke="#000000" stroke-width="0.1778" d="M68.4,112.4l10.2,6.8c0,0-7.1,11.5-8.4,18.1
				c-4.1-1.1-8.7-2.4-12.4-4.6c-3.4-2-6.7-3-9.5-3.8c1.1-2.5,2.8-5.5,5-7.7C59,115.4,68.4,112.4,68.4,112.4z"/>
			<path fill="#B81200" d="M135.3,129.6c0,0,0.5,1.7,0.8,2.5c0.3,0.8,0.5,1.7,0.5,1.7s-7.9,4.2-9.6,4.8c-1.6,0.7-6.3,2.5-7.7,3
				c-1.4,0.4-3.7,1.1-3.7,1.1l0.2-20.5l6.3-1.6c0,0,2,2.4,1.9,6.1c0,4.2,0.1,6.7,2.1,6.3C128.3,132.6,135.3,129.6,135.3,129.6z"/>
			<path stroke="#000000" stroke-width="0.1778" d="M74.5,120.3c0,0-9,10.5-6.7,18.5c2.3,8,22.2,8.7,23.7,8.2
				C92.9,146.5,74.5,120.3,74.5,120.3z"/>
			<path fill="#B81200" d="M74.9,121.4c0,0-8.2,9.7-6.2,17c2.1,7.4,20.4,8,21.8,7.5C91.9,145.5,74.9,121.4,74.9,121.4z"/>
			<path stroke="#000000" stroke-width="0.1778" d="M80.5,113.2c0,0-7.1,12.4-3.4,20.8c3.7,8.5,8,14.4,16.8,15.2
				c8.8,0.8,24-1.4,25.2-11.8c1.6-14.1-6.1-24.5-14.8-22.5C95.5,117,80.5,113.2,80.5,113.2z"/>
			<path fill="#B81200" d="M78.1,115.5c0,0-4.3,9.9-0.8,17.9c3.5,8,8.5,14.2,16.7,15c8.3,0.8,23-1.2,24.1-11
				c1.5-13.4-1.1-22.7-9.4-20.8C100.5,118.4,78.1,115.5,78.1,115.5z"/>
			<path fill="#E05E4B" stroke="#000000" stroke-width="0.1778" d="M80.3,133.5c-3.9-7-2.2-13-2.9-16.3c0.2-0.5,0.3-0.8,0.4-1.1
				l5.7,0c5.8,0.6,10.6,1.2,16.8,0.8c0.2,2.1-1.1,7.6,4.5,12.5c1.4,1.2,8.1,5.5,13.6,3.9c-0.1,1.3-0.2,2.9-0.4,4.3
				c-1,9.1-12.8,10.6-19.8,11C91.1,147.4,85.6,142.7,80.3,133.5z"/>
			<path stroke="#000000" stroke-width="0.1778" d="M49,80.3c0,0-8.1,13.3,3.5,28.4c12.3,15.8,31.5,16.2,45.6,16
				c15.6-0.2,27.2-5.5,27.2-5.5l1.1-14.6L49,80.3z"/>
			<path fill="#F5684F" stroke="#000000" stroke-width="0.1778" d="M146.2,77.1c0,0-0.4-2.7-0.5-6.1l1.1,0c0,0,11.7,5.2,13.8,20.8
				c0.1,0.5,0.3,1.4,0.3,1.9c-1-1.9-2.4-4.2-3.5-5.7C153.2,82.4,146.2,77.1,146.2,77.1z"/>
			<path fill="#CC1500" d="M50,78.4c0,0-8.6,14.4,3,29.4c12.3,15.8,32.6,16.2,46.6,16.1c15.6-0.2,29.1-5.7,29.1-5.7l-1.3-15.5
				L50,78.4z"/>
			<path stroke="#000000" stroke-width="0.1778" d="M135.1,66.4c0,0,0.8-0.4,2.1-0.8c0.6-0.1,0.8,0.3,1.6,0.2
				c0.9-0.1,2.4-0.6,3.5-0.4c1.6,0.2,2.5,0,4.4,0.8c7.8,3.5,9.9,13.9,6.7,20.5c-3.2,6.6-4.3,15.1-4.3,15.1L132.6,99L135.1,66.4z"/>
			<path fill="#CC1500" d="M135.2,68c0,0,6.2-5.9,12.5-1.1c6.4,4.7,7.8,14.4,4.7,20.7c-3.1,6.3-3.4,20.6-3.4,20.6l-16.2-9.1
				L135.2,68z"/>
			<path fill="#F5684F" stroke="#000000" stroke-width="0.1778" d="M124.2,105.9L131,97c0,0,9.9,1.5,16,6.4c3.4,2.7,7,8.5,9.6,13.3
				c-0.9,1.8-2,3.4-3.3,4.8c-4.3,4.4-10.5,8.7-16.6,12.1c-1.4-4.1-3.1-9.7-4.3-14.7C130.3,109.6,124.2,105.9,124.2,105.9z"/>
			<path fill="#F5684F" stroke="#000000" stroke-width="0.1778" d="M135.1,69.3l0.1-1.3c0,0,6.2-5.9,12.5-1.1c2,1.5,3.9,3.8,5,6
				c-2.5-2-6.8-4-8.7-4.2C141.3,68.3,138.9,69.6,135.1,69.3z"/>
			<path fill="#F5684F" stroke="#000000" stroke-width="0.1778" d="M147.1,80.3c2.1,0.9,4.3,2.4,6.4,4.2c-0.3,1.1-0.6,2.2-1.1,3.2
				c-1.2,2.4-1.9,5.9-2.4,9.4c-1.1-0.7-2.3-1.4-3.6-2c-3.5-1.7-9.7-2-13.1-2.1l1.3-17C137.1,76.5,141.6,77.9,147.1,80.3z"/>
			<path fill="#F5684F" stroke="#000000" stroke-width="0.1778" d="M46.9,88.5c3.9-1,11.4-1.2,11.4-1.2l2.6,13.1
				c0,0-6.4-0.9-10.1-0.2c-0.6,0.1-1.4,0.6-1.9,0.9C47,96.5,46.6,92,46.9,88.5z"/>
			<path fill="#F5684F" stroke="#000000" stroke-width="0.1778" d="M73.1,105.3l13.6,3.6c0,0-5.4,4-7.1,9.2
				c-0.5,1.4-0.8,3.2-1.1,4.5c-7.6-1.5-15.6-4.8-21.8-10.6c1.2-1,3.2-2.1,5.5-3C69.4,106.1,73.1,105.3,73.1,105.3z"/>
			<path fill="#F5684F" stroke="#000000" stroke-width="0.1778" d="M101.2,108.1l18.6,0.7c0,0-0.8,3.9,0.6,7.7
				c0.6,1.5,1.1,2.9,1.7,3.9c-5.2,1.4-13,3.4-21.6,3.6c-0.5-1.5-0.9-4-1-6.6C99.2,111.5,101.2,108.1,101.2,108.1z"/>
			<path fill="#D95947" d="M148.7,69.2c-1.8-2.5-5.2-3.4-6.8-2.6c-0.4,0.2-0.6,0.9-0.6,2c-1.2,0.3-3.6,0.8-6.3,1.3l-0.7-2.1
				c0,0,8.6-4.9,13-1.7c2.1,1.5,3.9,4.1,4.9,6.3c-1-0.7-2.2-1.4-2.8-1.7C149.4,70.6,149,69.6,148.7,69.2z"/>
			<path fill="#B81200" d="M150.5,72.8c0,0-0.7-1.6-0.7-1.6c0.6,0.3,1.5,0.8,2.5,1.5c1.8,3.8,2.1,7.7,1.2,11.5
				c-0.2-0.2-0.5-0.4-0.7-0.6c-0.3-0.3-0.5-0.4-0.7-0.6C153.1,79.6,152.1,76,150.5,72.8z"/>
			<path fill="#B81200" d="M135,69.9c2.6-0.5,5.2-0.8,6.3-0.9c0.1,2.6,1.2,6.4,1.8,9.6c-0.5-0.2-0.9-0.4-1.3-0.5
				c-4-1.3-6.4-0.3-7.4,0.2L135,69.9z"/>
			<g>
				<path fill="#D95947" d="M153.5,84.5c-0.3,1.1-0.6,1.9-1.1,3c-1.1,2.4-2,5.7-2.5,9.2c-0.2-0.1-0.5-0.3-0.8-0.5c0-0.2,0-0.6,0-0.9
					c0.3-2.8,1.7-7.7,2.8-12C152,83.4,152.7,83.9,153.5,84.5z"/>
				<path fill="#B81200" d="M141.5,99.9c-0.8-0.4-1.9-0.7-4-1.1c-0.6-2-1.2-3.7-1.9-6.2c2.7,0.6,5.4,0.8,7.7,1.5
					C143,96.5,142.3,98.2,141.5,99.9z"/>
				<path fill="#D95947" d="M134.4,78.2c1.4,0.1,3-0.5,4.3-0.5c2,0.1,3.3,0.6,4.5,1.1c0.1,0.3,0.2,0.7,0.2,1c0.6,4.3,0.6,9-0.1,13.9
					c-0.2,0-5.1-1-7.8-1.6c-0.6-1.9-1.2-4.1-1.7-6L134.4,78.2z"/>
				<path fill="#B81200" d="M149.7,99c-0.2-0.6-0.4-1.4-0.5-2.3c0.3,0.2,0.6,0.3,0.8,0.5C149.9,97.7,149.8,98.3,149.7,99z"/>
			</g>
			<path fill="#D65845" stroke="#000000" stroke-width="0.1778" d="M68.7,138.4c-0.8-2.9-0.1-6.7,1.1-9.5c0.1,3.8,0.7,7.4,2,9.8
				c1.7,3.1,2.7,3.6,5.4,6C73.3,143.5,69.5,141.3,68.7,138.4z"/>
			<path fill="none" d="M141.9,66.6c1.6-0.8,5,0.1,6.8,2.6c0.3,0.4,0.7,1,1,1.7c-1.7-0.8-5-2.9-8.1-2.2c0,0-0.1,0-0.2,0
				C141.3,67.6,141.4,66.9,141.9,66.6z"/>
			<path fill="none" d="M141.5,68.7c3.1-0.6,6.5,1.4,8.1,2.2c1.6,3.3,3.4,8.9,2.4,12.4c-0.1-0.1-0.1-0.1-0.2-0.2
				c-1.1-0.7-4.6-3.1-7.4-4c-0.3-0.1-0.7-0.2-1.2-0.3c-0.6-3.1-1.7-7.5-1.9-10.2C141.4,68.7,141.5,68.7,141.5,68.7z"/>
			<path fill="#B81200" d="M149.8,98.9c0,0,0.2-1.1,0.5-2.5c0.3-1.2,0.7-2.6,0.8-3.2c0.4-1.3,1.4-4.2,1.8-5.1
				c0.4-0.9,0.8-1.8,1.1-2.3c0.2-0.5,0.4-1,0.4-1s0.7,0.8,1.2,1.3c0.5,0.5,1,1.2,1,1.2s-2,1.3-3.6,4.9
				C151.4,95.8,149.8,98.9,149.8,98.9z"/>
			<path fill="#D95947" d="M156.8,87.1c0,0-0.7-0.9-1.2-1.4c-0.5-0.5-1.1-1.3-1.1-1.3s0.4-2.4,0.5-3.2c0.1-0.7-0.1-3.1-0.1-3.1
				s1.9,2.7,2.7,4.4c0.9,1.9,1.8,4.1,2.3,6.7c0.5,2.7,0.6,3.5,0.6,3.5l-1.8-3c0,0,0-0.8-0.3-2.2c-0.3-1.4-0.6-1.9-1-1.5
				C157.2,86.5,156.8,87.1,156.8,87.1z"/>
			<path fill="#B81200" d="M160.7,93.8c0,0-0.4-0.7-0.7-1.3c-0.4-0.7-1.3-2.1-1.3-2.1s0.3,7.8-0.6,12.1c-0.8,4.3-1.2,5.8-1.9,7.6
				c-0.7,1.8-1.4,3.3-1.4,3.3s1.8,3.2,1.9,3.3c0,0.1,1.7-3.1,2.4-6.2c0.7-3.1,1.4-6.5,1.6-10.3C161,96.4,160.7,93.8,160.7,93.8z"/>
			<path fill="#D95947" d="M156.6,116.9l-0.9-1.6l-1-1.7c0,0-1.7,3.1-4.7,6.1c-3,3-6,5.5-8.1,6.7c-2.1,1.2-6.3,3.1-6.3,3.1l1.3,4.1
				c0,0,7.5-4.2,10.9-7C155.4,120.4,156.6,116.9,156.6,116.9z"/>
			<path fill="#D95947" d="M140.4,99.8l1,0.4c0,0-1,3.5-3.3,6c-4.5,5-8.2,5.9-8.2,5.9s-0.5-0.9-0.8-1.3c-0.4-0.6-0.8-1.2-0.8-1.2
				s3.9-1.1,6.4-3c2.5-1.9,3.8-3.3,4.5-4.6C140,100.8,140.4,99.8,140.4,99.8z"/>
			<path fill="#B81200" d="M128.1,109.9c0,0,0.5,0.6,0.7,1c0.3,0.4,0.9,1.5,0.9,1.5s-2.2,1-4.4,1.7c-2.2,0.7-5.2,1.1-5.2,1.1
				s-0.3-1.3-0.4-2.2c-0.1-1,0.3-1.6,0.3-1.6s3.3-0.3,4.7-0.6C126.2,110.4,128.1,109.9,128.1,109.9z"/>
			<path fill="#F5684F" d="M112.6,134.2c-2.4-0.8-4.4-0.4-7.2-2.8c-2.8-2.4-3.6-5.3-4.1-5.6c-0.4-0.2-10,0.1-13.9,0
				c-3.9-0.2-8.5-1.3-8.4,0.4c0.2,1.7,3.3,9,6.3,12.6c3,3.6,7.3,6.7,9.8,7.7c2.5,1,9.6,0.1,12.9-1.7c3.3-1.8,6.4-6.4,7.3-8.5
				C116.4,134.1,112.6,134.2,112.6,134.2z"/>
			<path fill="#CC1500" d="M116.1,131.8c0.5-0.4,0.7-1.7,1-3.8c0.2-2.1,0-4.7-1.1-4.4c-1.1,0.3-3,0.9-5.6,1.1
				c-2.6,0.1-7.1,0.3-6.2,1.5c0.9,1.2,2.3,4.1,5.5,5.1C113,132.2,116.1,131.8,116.1,131.8z"/>
			<path fill="#D95947" d="M119.4,111.6c0,0-6.8,0.6-8.9,0.7c-2,0.1-10.5,0.1-10.5,0.1s-0.3,0.6-0.3,1.7c-0.1,1.1,0,2.6,0,2.6
				s3.9,0,9.5-0.4c5.5-0.3,10.8-1.1,10.8-1.1s-0.3-1-0.3-1.7C119.5,112.7,119.4,111.6,119.4,111.6z"/>
			<path fill="#B81200" d="M99.2,116.7c0,0,0-1.8,0.1-2.5c0.1-0.7,0.4-1.8,0.4-1.8s-5.6,0-7.2-0.1c-1.6-0.1-8.7-0.4-8.7-0.4
				s-0.6,0.5-1.4,1.6c-0.7,0.9-1.4,2-1.4,2s4,0.5,9.5,0.9C96,116.7,99.2,116.7,99.2,116.7z"/>
			<path fill="#D95947" d="M80.7,115.3c0,0,0.8-1.2,1.3-1.9c0.5-0.7,1.4-1.7,1.4-1.7s-5.7-0.4-8.4-0.9c-2.7-0.4-7.2-1.4-8.5-1.9
				c-1.3-0.4-2.1-0.8-2.1-0.8l-3.2,1.3c0,0,3,1.7,8.7,3.5C75.6,114.9,80.7,115.3,80.7,115.3z"/>
			<path fill="#B81200" d="M61,109.3c0,0,0.9-0.3,1.5-0.6c0.6-0.2,1.5-0.6,1.5-0.6s-3.8-1.8-5.3-3.2c-1.5-1.5-4-4.8-4-4.8
				s-0.6-0.1-1-0.1c-0.5,0-2.3,0.2-2.3,0.2s1.6,2.1,3.4,4.1C58,107.9,61,109.3,61,109.3z"/>
			<path fill="#D95947" d="M53.1,99.7l-2,0.2c0,0-1.4-2.7-2.4-6.3c-1-3.6-0.9-5.1-0.9-5.1l1.4-0.4c0,0,1,3.7,2.2,6.2
				c1.3,2.5,3.2,5.5,3.2,5.5L53.1,99.7z"/>
			<path fill="#B81200" d="M47.7,88.1l1.3-0.3c0,0-0.5-1.8-0.6-2.3c-0.1-0.5-0.4-2.2-0.4-2.2s-0.2,0.8-0.4,1.6c-0.2,0.8-0.4,2-0.4,2
				s0.2-0.4,0.5-0.5C48,86.3,47.7,88.1,47.7,88.1z"/>
			<path fill="#F5684F" d="M41.5,83.2c-1.3,0.5-2.3,1-2.3,1s3.2-4,4.5-5.3c0.8-0.9,1.4-1.4,1.4-1.4s-0.5,0.9-1,2.7
				c-0.4,1.6-0.5,2.4-0.5,2.4S42.8,82.7,41.5,83.2z"/>
			<path fill="#B81200" d="M47.9,82.3c0,0-1.2,0-2.2,0.1c-1.1,0.1-2.2,0.4-2.2,0.4s-1.1,2.7-1.7,7.6c-0.5,4.3-0.2,5.4-0.2,5.4
				s2-0.3,2.8-0.5c0.9-0.2,1.9-0.3,1.9-0.3s-0.3-4,0-6.8C46.7,85.4,47.9,82.3,47.9,82.3z"/>
			<path fill="#D95947" d="M44,95.8c-1.4,0.3-2.3,0.4-2.3,0.4s0.6,4.8,1.9,8.6c1.3,3.8,2.1,5.6,2.1,5.6s3.3-1,4.3-1.2
				c1-0.1,2.7-0.3,2.7-0.3s-2.8-3.6-3.8-6c-1.1-2.4-2.4-7.5-2.4-7.5S45.4,95.5,44,95.8z"/>
			<path fill="#D95947" d="M67.1,120.2c1.5,0.7,5.7,2.2,5.7,2.2s-2.8,4.2-3.5,5.8c-0.6,1.5-1.5,3.6-1.8,5.3
				c-0.2,1.6-0.3,2.9-0.3,2.9s-1.4-3.4-1.6-7c-0.2-3.6-2.1-5.6-3.3-7.1c-2.2-2.7-4.8-4.4-4.8-4.4s1.1-0.7,1.5-1
				c0.4-0.2,1.1-0.6,1.1-0.6S63.3,118.4,67.1,120.2z"/>
		</g>
		<path fill="#CC1500" d="M74,126.6c-1.2-0.5-1.4,2.8-1.3,4.5c0.1,1.7-0.4,2,1.9,5.2c2.3,3.2,8.7,6.8,6.3,3.5
			c-2.4-3.4-3.9-5.8-5-8.4C74.8,128.8,75.2,127.1,74,126.6z"/>
		<g>
			<path fill="#6C5133" d="M171.6,91.6c0,0-13.6,15.1-45.5,20.6C91.9,118,55.7,96,50.8,77.6C46.5,61.5,52,50.5,52,50.5L171.6,91.6z"
				/>
			<path fill="#FFCB4B" d="M171.9,89.7c0,0-13.6,15.1-45.5,20.6c-34.1,5.9-70.6-16.2-74-31.9c-3.4-15.7-0.1-29.7-0.1-29.7
				L171.9,89.7z"/>
			<g>
				<path stroke="#000000" stroke-width="7.654300e-02" d="M94.1,19c5.8-4,11.9-4,15.2,0.3c4.6,6,2.7,12.9-3.1,16.9
					c-5.8,4-13.9,2.7-17-1.8C86.1,29.9,88.3,23,94.1,19z"/>
				<path fill="#FFC137" d="M93.8,19.5c5.8-4,12-4.1,15.3,0.2c4.6,6,2.6,12.9-3.2,16.9c-5.8,4-15,6.2-18.1,1.7
					C84.7,33.9,88,23.5,93.8,19.5z"/>
				<path fill="#FFE485" d="M95.6,29.8c1.6-2.3,3.9-4.4,5.5-5.4c3.3-2.1,6.4-2.4,7.9-1.6c1.3,0.7,2.1,2.6,2.2,5.2
					c0,0.7-0.4,2.5-0.4,2.9c1.4-3.5,1.1-7.4-1.7-11.1c-1.2-1.5-2.7-2.5-4.4-2.9c-3.3,1.6-8.1,5.1-9.6,7.7c-1.1,2-5.3,7.6-8.3,11.5
					c0.2,0.9,0.5,1.7,1,2.3c0.6,0.8,1.3,1.4,2.2,1.8c0.2-0.1,0.3-0.3,0.4-0.5C91.1,37.9,94,32,95.6,29.8z"/>
				<g>
					<path stroke="#000000" stroke-width="7.654300e-02" d="M90.7,37.7c1.2-5.3,6.9-13.2,10.8-16.2c3.1-2.4,3.8-3,5.8-4.1
						c-4.5-2.8-12.2-2.4-17.3,1.6c-7.9,6.2-7.6,14.3-3,20.9c0.8,1.1,1.7,2.1,2.7,2.9C90,41,90.4,39.2,90.7,37.7z"/>
					<path fill="#FFC137" d="M90.5,38.6c0.7-5.3,5.6-13.1,10.3-17.1c2.2-1.9,4-3.1,5.7-4c-4.8-2.4-11.7-1.4-16.7,2.3
						c-6.7,5.1-7.2,13.1-2.4,20.7c0.7,1.1,2.5,3.4,3.5,4.1C90.1,41.3,90.3,39.9,90.5,38.6z"/>
					<path d="M105.9,18.3c1.2-0.7,1.9-1,2.7-1.4c1.1-0.6,2.8-1.5,0.9-0.7c-1.9,0.8-3.7,1.8-3.7,1.8L105.9,18.3z"/>
				</g>
			</g>
			<path fill="#956213" d="M54.7,36.6c-0.7-3.4-5.7-5.2-11.1-4c-5.4,1.2-9.2,4.9-8.4,8.2c0.7,3.4,5.7,5.1,11.1,4
				C51.6,43.7,55.4,40,54.7,36.6z"/>
			<path fill="#6C5133" d="M98.3,17.1c-3.1-2.3-18.3-9.8-30.2-0.6c-11.9,9.2-16.9,21-18.1,32.5c-1.3,11.5-1.5,20.3,0.1,25.9
				c2.8,9.4,7.8,13.4,8.9,15c0,0,60.3-12.2,59.3-11.9C117.2,78.2,98.3,17.1,98.3,17.1z"/>
			<path fill="#FFCB4B" d="M99.7,19.6c-3.1-2.3-18.5-11.9-30.4-2.7c-11.9,9.2-16.9,21-18.1,32.5c-1.3,11.5-2,21.1,0.7,28.3
				C58.6,95.6,79,102.3,79,102.3s41.5-24.1,40.4-23.9C118.4,78.6,99.7,19.6,99.7,19.6z"/>
			<path fill="#FFC137" d="M86.2,55.9c-0.6-5.6-6.6-10-11.9-15.3c-5.3-5.3-8.1-14.7-5.9-19.7c1.9-4.2,5.9-5.9,9.3-7.6
				c9.8-1.6,19.6,4.6,22,6.4c0,0,2.5,8,5.8,18.1C96.7,49.4,86.5,59.1,86.2,55.9z"/>
			<path fill="#6C5133" d="M60.7,43.3c0,0-6.2-5.8-12.3-6.7c-6-0.8-9.4-0.4-10.6,1.9c-1.3,2.3,1,5,4.8,5c3.8,0,9.4-3.1,9.4-3.1
				s-0.3,2.4-0.7,3.9c-0.4,1.4-0.7,2.1-1.4,4.6c0,0-3.9-2.4-6.6-1.8c-2.7,0.6-5.7,0.3-8.6-3c-2.9-3.3-2.9-9,1.9-11.7
				c4.8-2.7,9.6-0.6,16-2.1c6.5-1.5,10.6-5.2,10.6-5.2s2.5,4.2,1.9,8.3C64.5,37.7,60.7,43.3,60.7,43.3z"/>
			<path fill="#FFCB4B" d="M60.7,43.3c0,0-6.3-6.8-12.4-7.6c-6-0.8-10.1,0.2-11.4,2.5c-1.3,2.3,1.9,6,5.6,6c3.8,0,8.8-2.4,8.8-2.4
				s-0.3,1.4-0.5,2.3c-0.4,1.7-0.8,3.3-0.9,4.1c0,0-3.7-2.3-6.4-1.7c-2.7,0.6-5.2,0.6-8.1-2.7c-2.9-3.3-3.3-8,1.5-10.7
				c4.8-2.7,10.2-0.7,16.7-2.2c6.5-1.5,9.7-5.7,9.7-5.7s3.4,4.4,2.8,8.5C65.4,37.9,60.7,43.3,60.7,43.3z"/>
			<path fill="#FFC137" d="M37,38.2c-1.3,2.3,1.9,6,5.6,6c3.8,0,8.8-2.4,8.8-2.4s-0.3,1.4-0.5,2.3c-0.4,1.7-0.8,3.3-0.9,4.1
				c0,0-3.7-2.3-6.4-1.7c-2.7,0.6-5.2,0.6-8.1-2.7c-2.6-3-3.2-7.1,0.2-9.9c-0.2,0.4-0.3,0.7-0.5,1.1c-1.2,2.1-1.3,3.5-0.4,4.4
				c0.8,0.8,0.4-5,9.4-5c7.1,0,12.9,4.6,15.2,7.5c0,0,0.1,0.1,0.1,0.1c-2.2-2-6.7-5.7-11-6.3C42.3,34.9,38.3,35.9,37,38.2z"/>
			<g>
				<path stroke="#000000" stroke-width="9.617800e-02" d="M82.3,17.7c7.3-5,14.9-5.1,19.1,0.4c5.8,7.5,3.4,16.2-3.9,21.2
					c-7.3,5-17.5,3.4-21.4-2.3C72.3,31.3,75.1,22.7,82.3,17.7z"/>
				<path fill="#FFC137" d="M82,18.3c7.3-5,15.1-5.1,19.3,0.3c5.8,7.5,3.2,16.3-4.1,21.3c-7.3,5-18.9,7.8-22.8,2.1
					C70.5,36.3,74.7,23.3,82,18.3z"/>
				<path fill="#FFE485" d="M84.3,31.2c2-2.8,4.9-5.5,6.9-6.8c4.1-2.6,8-3.1,9.9-2.1c1.7,0.9,2.7,3.3,2.8,6.5c0,0.9-0.5,3.1-0.5,3.7
					c1.8-4.3,1.4-9.3-2.1-13.9c-1.5-1.9-3.4-3.1-5.6-3.7c-4.1,2.1-10.1,6.4-12.1,9.7c-1.4,2.5-6.7,9.5-10.4,14.4
					c0.2,1.1,0.6,2.1,1.2,2.9c0.7,1,1.6,1.7,2.7,2.3c0.2-0.2,0.4-0.4,0.5-0.6C78.6,41.4,82.3,34,84.3,31.2z"/>
				<g>
					<path stroke="#000000" stroke-width="9.617800e-02" d="M78.1,41.2c1.5-6.7,8.7-16.6,13.6-20.4c3.8-3,4.8-3.7,7.3-5.1
						c-5.7-3.5-15.3-3-21.7,2c-10,7.8-9.5,18-3.8,26.3c1,1.4,2.1,2.6,3.3,3.6C77.2,45.3,77.7,43,78.1,41.2z"/>
					<path fill="#FFC137" d="M77.8,42.2c0.9-6.7,7-16.4,13-21.4c2.8-2.4,5-3.9,7.2-5.1c-6-3-14.7-1.8-21,2.9c-8.5,6.4-9,16.5-3.1,26
						c0.9,1.4,3.2,4.2,4.4,5.2C77.3,45.7,77.5,44,77.8,42.2z"/>
					<path d="M97.2,16.8c1.5-0.9,2.4-1.3,3.3-1.8c1.4-0.8,3.6-1.9,1.1-0.9c-2.5,1.1-4.6,2.2-4.6,2.2L97.2,16.8z"/>
				</g>
			</g>
			<g>
				<path fill="#6C5133" d="M176.5,8.5c-0.7-1.9-5.9-3.4-10.9-1.2c-5,2.2-6.9,8-6.9,8l4.7,1L176.5,8.5z"/>
				<path fill="#FFCB4B" d="M176.5,8.8c-0.7-1.9-5.5-3.1-10.5-0.9c-5,2.2-7.3,7.7-7.3,7.7l4.7,1L176.5,8.8z"/>
				<path fill="#6C5133" d="M177.2,15.3c0,0,0.6-2.8,0.2-4.9c-0.4-2.1-1.6-4-5.2-3.7c-4,0.3-5.9,2.6-6.9,4.4c-1,1.7-2.4,5.2-2.4,5.2
					s4-0.4,7.9-0.8C174.6,15,177.2,15.3,177.2,15.3z"/>
				<path fill="#FFCB4B" d="M176.6,15.2c0,0,0.5-2.2,0.2-4.2c-0.4-2-1.4-3.8-4.9-3.4c-3.5,0.3-5.4,2.7-6.3,4.4
					c-0.9,1.7-2.8,4.9-2.8,4.9s4.2,0.1,7.9-0.3C174.3,16.1,176.6,15.2,176.6,15.2z"/>
			</g>
			<path fill="#6C5133" d="M85.3,58.1c0.1-0.6,8.1-23.3,30.2-36.9c17.6-10.8,32.3-15.8,53.3-10.8c28.3,6.7,39.8,47.9,22.9,69.4
				c-16.9,21.4-36.1,25.6-45.2,27.3c-9.2,1.7-22.7,1.9-29.6-2.3C110.1,100.7,83.9,66.7,85.3,58.1z"/>
			<path fill="#FFCB4B" d="M83.9,61.7c0.1-0.6,10.8-26.3,32.4-39.5c17.2-10.5,31.5-15.4,52-10.5c27.6,6.5,38.8,46.7,22.3,67.6
				c-16.5,20.9-35.1,25-44.1,26.6c-8.9,1.6-25.5,2.8-32.2-1.3C107.6,100.6,82.4,70,83.9,61.7z"/>
			<path fill="#FFE485" d="M191.1,70.9c-5,3.1-10,6.2-8.7-9.4c1.3-15.6,0.6-28.1-3.7-31.3c-4.4-3.1-3-9.4-8.1-13.8
				c-5-4.4-8.8-5.6-16.3-5c-7.5,0.6-25.6,3.1-30,8.1c-4.4,5-11.9,13.7-17.5,15c-1.5,0.3-3.5,0.4-5.8,0.4c4.3-4.7,9.3-9.2,15.2-12.8
				c17.2-10.5,31.5-15.4,52-10.5c24.2,5.7,35.8,37.3,27.2,59.1C194.4,69.7,192.9,69.8,191.1,70.9z"/>
			<g>
				<path fill="#6C5133" d="M160.5,9.4c-1.2-4-10.5-6.7-19.6-2c-9.1,4.7-12.9,16.4-12.9,16.4l8.5,2L160.5,9.4z"/>
				<path fill="#FFCB4B" d="M160.4,10c-1.2-4-10.1-6.6-19.1-1.9c-9.1,4.7-13.4,16.2-13.4,16.2l8.5,2L160.4,10z"/>
				<path fill="#6C5133" d="M161.3,20.7c0,0,1.4-2.8,0.7-7.3c-0.7-4.5-2.9-8.4-9.6-7.7c-7.3,0.7-10.8,5.5-12.6,9.2
					c-1.8,3.7-4.3,10.9-4.3,10.9s7.3-0.9,14.4-1.8C157,23.1,161.3,20.7,161.3,20.7z"/>
				<path fill="#FFCB4B" d="M161.1,22.6c0,0,0.8-4,0.2-8.3c-0.7-4.3-2.6-8.2-9-7.5c-6.5,0.7-10.3,5.1-12.1,8.7
					c-1.7,3.5-4.8,11.1-4.8,11.1s7.7,0.3,14.5-0.6C156.6,24.9,161.1,22.6,161.1,22.6z"/>
				<g>
					<path fill="#6C5133" d="M156.4,22.1c0,0,0.2-3.2-0.6-4.9c-1.3-2.6-5.2-4.7-8.9-0.9c-3.1,3.1-4.3,6.3-4.3,6.3L156.4,22.1z"/>
					<path fill="#663700" d="M156,21.1c0,0,0.1-2.3-0.6-3.8c-0.9-2.1-5.3-3.9-8.5-0.2c-2.6,2.9-3.4,5.1-3.4,5.1L156,21.1z"/>
				</g>
				<g>
					<path fill="#6C5133" d="M157.6,21.1c0,0-2.7-4-8.3-2.5c-5.6,1.5-9,5.6-9,5.6s4.2-0.1,9.2-0.6C155.1,23,157.6,21.1,157.6,21.1z"
						/>
					<path fill="#FFCB4B" d="M158.5,21.7c0,0-3.6-4-9.2-2.6c-5.6,1.5-9.5,5.7-9.5,5.7s4.8,0.1,9.7-0.4
						C155.1,23.8,158.5,21.7,158.5,21.7z"/>
				</g>
			</g>
			<path fill="#E39A1A" stroke="#5F3700" stroke-width="3.317100e-02" d="M127.9,47.4c-0.3-0.7-1.3-1-2.2-0.6c-0.9,0.4-1.4,1.3-1,2
				c0.3,0.7,1.3,1,2.2,0.6C127.8,49,128.2,48.1,127.9,47.4z"/>
			<path fill="#E39A1A" stroke="#5F3700" stroke-width="3.317100e-02" d="M109.4,51.5c-0.3-0.7-1.2-1.1-2.1-0.7
				c-0.9,0.3-1.4,1.2-1.2,1.9c0.3,0.7,1.2,1.1,2.1,0.7C109.1,53.1,109.6,52.3,109.4,51.5z"/>
			<path fill="#E39A1A" stroke="#5F3700" stroke-width="3.317100e-02" d="M112.5,66.5c-0.3-0.7-1.2-1.1-2.1-0.7
				c-0.9,0.3-1.4,1.2-1.2,1.9c0.3,0.7,1.2,1.1,2.1,0.7C112.2,68.1,112.8,67.3,112.5,66.5z"/>
			<path fill="#6C5133" d="M120.6,99.3c0,0,8.1-3.6,13.3-3.5c5.2,0.1,7.9,0.2,7.1-0.9c-0.8-1.1-5-0.9-9.6,0.1
				C126.8,96.1,120.8,98.7,120.6,99.3z"/>
			<path fill="#6C5133" d="M133.4,101.7c0,0-2.1,1.7-5.2,2.1c-3.1,0.4-7.5,0.1-4.2,0.6c2.7,0.4,5,0.2,7.5-0.6
				C134.1,103,135.1,101.3,133.4,101.7z"/>
			<path fill="#593E09" d="M184,24.7c2,3.3,6.4,7.9,9.4,20.7c1.6,6.9,1,13.5-0.1,18.3c0.7-5,1-12.2-0.1-17.4
				C190.9,36,186.3,28.2,184,24.7z"/>
			<path fill="#593E09" d="M184.5,32.1c1-0.4,2.4-0.6,3.9-0.6c1.3,0,2.5,0.2,3.5,0.5c-1-0.1-2.1-0.2-3.2-0.2
				C187.2,31.7,185.8,31.9,184.5,32.1z"/>
			<path fill="#593E09" d="M189.4,47.9c1-0.5,2.3-0.9,3.8-1.1c1.3-0.2,2.5-0.1,3.5,0.1c-1,0-2.1,0.1-3.2,0.2
				C192,47.3,190.6,47.6,189.4,47.9z"/>
			<path fill="#FFCB4B" d="M119.5,78.4L119.5,78.4C119.5,78.4,119.5,78.4,119.5,78.4z"/>
			<path fill="#FFC137" d="M132.7,100.6c-0.2-1-2.4-1.4-4.9-0.9c-2.5,0.5-4.3,1.8-4.1,2.8c0.2,1,2.4,1.4,4.9,0.9
				C131.1,102.8,132.9,101.6,132.7,100.6z"/>
			<path fill="#FFCB4B" d="M119.5,78.4L119.5,78.4C119.5,78.4,119.5,78.4,119.5,78.4z"/>
		</g>
		<g>
			<path stroke="#000000" stroke-width="0.2466" d="M128.4,110.2c4.1,2,6.1,4.7,3.7,7.4c-2.4,2.7-3.4,4.3-1.8,5
				c1.7,0.7,2.2,0.6-1.6,3c-3.8,2.5-10,5.3-14.7,4.3c-4.7-0.9-6.9-2-12.9,0.8c-6,2.8-6,3-14.2,3.6c-8.2,0.6-13.5,3.7-12.7-2.6
				c1.2-9.8,7.4-15.6,7.3-23.1c0-2.5-2.3-4.8,0.3-18.4l27.4-0.9L128.4,110.2z"/>
			<path fill="#F2E6DA" d="M125.9,109.8c4,2,8.3,4.8,6,7.4c-2.3,2.6-4.5,4.2-2.2,5.4c1.5,0.8,1.7,0.7-1.9,3.1
				c-3.6,2.4-9.5,4.5-14,3.5c-4.5-0.9-6.6-2-12.3,0.8c-5.7,2.8-5.7,2.9-13.6,3.6c-7.9,0.6-12.9,3.7-12.1-2.6
				c1.2-9.6,7.1-15.4,7-22.8c0-2.5-2.2-4.7,0.2-18.1l26.3-0.9L125.9,109.8z"/>
			<path stroke="#000000" stroke-width="0.2466" d="M115.8,85.6c0,0,7.3,2.4,12.3,12.6c2.9,5.9,3.8,11.6,0.4,16.4
				c-3.4,4.8-13.5,7.2-13.5,7.2l-9.1-27.4L115.8,85.6z"/>
			<path fill="#F2E6DA" d="M114.4,86c0,0,8.4,2.5,13.4,12.8c2.9,5.9,2.7,11.5-0.7,16.3c-3.4,4.8-13.4,7.3-13.4,7.3l-9.2-27.5
				L114.4,86z"/>
			<path stroke="#000000" stroke-width="0.2466" d="M83.5,93.2c-0.4-1.2-4.1-5.7-4.9-10.5C77.8,78,76.1,67.5,82,66.4
				c6.1-1.2,8.3,1.9,12.6-0.4c4.3-2.4,10.4-1.8,17,0.6c6.5,2.4,14.5,4.1,11.1,11.7c-3.4,7.6-5.5,11.2-6.1,18.8
				c-0.6,7.6-2.6,12.4-2.6,12.4L83.5,93.2z"/>
			<path fill="#F2E6DA" d="M83.1,94.2c-0.4-1.2-2.6-5.3-3.4-10c-0.8-4.8-3.6-16,2.3-17.1c6.1-1.2,8,2.2,12.3-0.2
				c4.3-2.4,10.4-1.8,17,0.6c6.6,2.4,13.8,3.2,10.4,10.8c-3.4,7.6-5.2,10.4-5.7,18.1c-0.6,7.6-2,14.2-2,14.2L83.1,94.2z"/>
			<path d="M94.3,66.9c-4.4,2.6-8.6,7.5-6.5,4.6c1.8-2.6,4.5-4.6,4.5-4.6L94.3,66.9z"/>
			<path d="M79.4,119.4c1.6-1.8,7.4-7.7,5-5.6c-2.3,2-3.7,2.4-3.7,2.4L79.4,119.4z"/>
			<path fill="#FFF6EB" d="M83.5,118.4c3-3,8.3-9.4,4.5-8c-3.8,1.4-2.7-0.4-2.2-2.9c0.5-2.5-1.7-3,2.7-4.4c4.3-1.4,3.2-2.3,9.5-4.2
				c6.2-1.9,6.8-1,9.5-2.8c2.7-1.8,6.4-4.4,5.4-1c-1,3.4-1,5-0.9,9.1c0.1,4.1-3.8,13,0.5,9.7c4.3-3.4,7.3-5.1,7.1-10
				c-0.1-4.8-1.1-10,2.3-7.8c3.3,2.2,6.4,4.5,5.9,9.2c-0.4,4.6-0.1,7.1-4.4,10.9c-4.3,3.7-15.5,4.9-11.9,5.8c3.6,0.9,6.9,2,9.9,0.4
				c3-1.6,5.1-2.1,4.9,0c-0.2,2.1-1.3,3.7-4.3,4.4c-3,0.7-6.5,1-12.6,0.2c-6-0.8-9.3,1.4-16.7,3.1c-7.4,1.7-15.5,6.1-14.3,0.2
				C79.7,124.4,83.5,118.4,83.5,118.4z"/>
			<path fill="#FFF6EB" d="M81.5,79.5c-1.7-2.3-2.8-5-1.5-7.5c1.3-2.5,2.9-5.3,4.3-3.9c1.4,1.4,0,6.6,2.5,5.5c2.4-1.1,4.5-4,8.3-5.7
				c3.8-1.8,5.2-2,7.9-1.5c2.7,0.6,6,0.7,9.8,2.6c2.1,1-2.7,0.3-7.8,0c-5.2-0.4-6.5,0.7-10.2,2.6c-3.8,1.9-7.2,5.8-9.3,7.6
				C83.1,80.9,81.5,79.5,81.5,79.5z"/>
			<path fill="#FCF1E5" d="M87.8,119.1c1.6-2.7,2.4-3.5,3.7-5.1c1.3-1.6-0.3-3.4,0.7-5c1.1-1.6-3.6-4.7-0.9-5.4
				c2.7-0.7,10.9-0.5,13.3-2.4c2.4-1.9,6.4-4.4,4.1-1c-2.4,3.4-2.6,5.3-3.9,8.4c-1.3,3-2.1,6.2,2.3,7.2c4.4,0.9,10.9-1.5,8.2,1
				c-2.7,2.5-6,1.8-8.7,4.1c-2.7,2.3,10.8,4.5,5.4,4.6c-7.2,0.1-10.1-0.5-19.5,2.9c-7,2.5-10.4,0.3-9.1-2.4
				C84.9,123.2,87.8,119.1,87.8,119.1z"/>
		</g>
		<g>
			<path stroke="#1D191A" stroke-width="9.204400e-02" d="M175.4,181.5l-7.5-9c-0.1-0.1-0.3-0.2-0.4-0.3c-1.5-1.4-3.5-3.3-5.8-4
				c-2.1-0.6-4.1-2.1-5.8-3.9l-38.5-45.7c0,0-2-2.3-2.6-3.5c-2-3.8-1.9-7.3,0.3-9.3c2.5-2.2,6.7-1.7,10.4,1.8l40.3,47.9
				c1.5,2,2.7,4.2,2.9,6.5c0.3,2.5,1.8,4.8,3,6.5c0,0.1,0.1,0.1,0.1,0.2l7.8,9.2c2.2,2.6,3,5.5,1.9,6.5l-0.1,0.1
				C180.2,185.3,177.5,184.1,175.4,181.5z"/>
			<path fill="#DED7C6" d="M175.3,181.2l-7.5-8.9c-0.1-0.1-0.3-0.2-0.4-0.3c-1.5-1.4-3.4-3.3-5.7-4c-2-0.6-4-2.2-5.6-4l-39.7-47.2
				c-2.9-4.2-3.1-8.3-0.9-10.3c2.3-2.1,6.3-1.4,9.9,2.1l39.8,47.3c1.5,1.9,2.7,4.2,3,6.3c0.4,2.4,1.9,4.6,3,6.3c0,0,0.1,0.1,0.1,0.1
				l7.7,9.1c2.1,2.5,3,5.4,2,6.3l-0.1,0C180,185,177.4,183.7,175.3,181.2z"/>
			<path fill="#DED7C6" d="M175.3,181.2l-7.5-8.9c-0.1-0.1-0.3-0.2-0.4-0.3c-1.5-1.4-3.4-3.3-5.7-4c-2-0.6-4-2.2-5.6-4l-38.3-45.5
				c0,0-0.9-1.1-1.4-1.8c-0.5-0.7-0.7-1.2-0.9-1.5c-2-3.6-1.9-7,0.1-8.8c2.3-2.1,6.3-1.4,9.9,2.1l39.8,47.3c1.5,1.9,2.7,4.2,3,6.3
				c0.4,2.4,1.9,4.6,3,6.3c0,0,0.1,0.1,0.1,0.1l7.7,9.1c2.1,2.5,3,5.4,2,6.3l0,0l0,0C180,185,177.4,183.7,175.3,181.2z"/>
			<path fill="#FFFCEA" d="M175.2,180.1l-7.3-8.7c-0.1-0.1-0.2-0.2-0.4-0.3c-1.4-1.4-2.2-2-4.3-2.9c-1.8-0.8-4.2-2-5.8-3.8l-39-46.3
				c0,0-1-1.1-1.6-2.1c-2.4-3.9-2.7-7.4-0.7-9.1c2.1-1.9,5.8-1.1,9.4,2.4l40.2,47.7c1.5,1.9,2.2,4.6,2.7,6.6
				c0.6,2.2,1.1,3.1,2.2,4.8c0,0,0.1,0.1,0.1,0.1l7.5,9c2.1,2.5,3.9,4,2.3,5.9l0,0C178.5,184.7,177.3,182.6,175.2,180.1z"/>
			<path fill="#FFFFFF" stroke="#000000" stroke-width="9.204400e-02" d="M177.5,182.9l-6.3-7.5c-0.4-0.5-0.5-1.2-0.2-1.8l-54.6-65
				c-0.3-0.3-0.2-0.8,0.2-1.2c0.4-0.3,0.9-0.3,1.1,0l54.6,64.9c0.7-0.3,1.4-0.1,1.9,0.4l6.3,7.5c0.6,0.7,0.5,1.9-0.3,2.6
				C179.2,183.6,178.1,183.6,177.5,182.9z"/>
			<path fill="#F40400" d="M177.3,182.2l-5.6-6.7c-0.5-0.6-0.6-1.3-0.4-1.9l-29.6-35.2c-0.3-0.3-0.2-0.8,0-1c0.3-0.3,0.7-0.2,1,0.1
				l29.6,35.2c0.6-0.2,1.4,0,1.9,0.6l5.6,6.7c0.7,0.8,0.6,1.9-0.1,2.5C179,183.1,177.9,183,177.3,182.2z"/>
			<path fill="#FFFFFF" d="M178,182.4c0.4,1.3-6-6.5-4.4-5.3C175.1,178.3,177.5,181.1,178,182.4z"/>
			<path fill="#FFFFFF" d="M115.5,109.6c-0.6,0.1-0.1,4.2,1.6,6.6c1.6,2.2,5.5,5.4,3.1,2.3C116.1,113.1,116.1,109.5,115.5,109.6z"/>
			<g>
				<polygon points="163.1,165 117.5,110.8 117.4,111 163,165.2 				"/>
				<polygon points="115.9,113 117.7,111.3 117.6,111.2 115.8,112.8 				"/>
				<polygon points="118,113.2 118.7,112.5 118.6,112.3 117.8,113 				"/>
				<polygon points="118.9,114.3 119.6,113.6 119.5,113.4 118.7,114.1 				"/>
				<polygon points="119.8,115.3 120.5,114.6 120.4,114.5 119.7,115.2 				"/>
				<polygon points="120.7,116.4 121.5,115.7 121.3,115.6 120.6,116.3 				"/>
				<polygon points="121.6,117.5 122.4,116.8 122.2,116.7 121.5,117.4 				"/>
				<polygon points="122.1,119.1 123.4,118 123.2,117.8 122,119 				"/>
				<polygon points="123.6,119.8 124.3,119.1 124.2,119 123.4,119.7 				"/>
				<polygon points="124.5,120.9 125.2,120.2 125.1,120.1 124.4,120.8 				"/>
				<polygon points="125.4,122 126.1,121.3 126,121.1 125.3,121.8 				"/>
				<polygon points="126.3,123.1 127.1,122.4 126.9,122.2 126.2,122.9 				"/>
				<polygon points="127.2,124.2 128,123.5 127.8,123.3 127.1,124 				"/>
				<polygon points="127.2,126.3 129,124.7 128.8,124.5 127,126.1 				"/>
				<polygon points="129.2,126.5 130,125.8 129.9,125.7 129.1,126.4 				"/>
				<polygon points="130.1,127.6 130.9,126.9 130.8,126.8 130,127.5 				"/>
				<polygon points="131,128.7 131.8,128 131.7,127.9 130.9,128.6 				"/>
				<polygon points="132,129.8 132.7,129.1 132.6,128.9 131.8,129.6 				"/>
				<polygon points="132.9,130.9 133.6,130.2 133.5,130 132.7,130.7 				"/>
				<polygon points="133.4,132.5 134.6,131.4 134.5,131.2 133.2,132.3 				"/>
				<polygon points="134.8,133.2 135.6,132.5 135.5,132.4 134.7,133 				"/>
				<polygon points="135.7,134.3 136.5,133.6 136.4,133.4 135.6,134.1 				"/>
				<polygon points="136.6,135.4 137.4,134.7 137.3,134.5 136.5,135.2 				"/>
				<polygon points="137.6,136.4 138.3,135.8 138.2,135.6 137.4,136.3 				"/>
				<polygon points="138.5,137.5 139.2,136.8 139.1,136.7 138.3,137.4 				"/>
				<polygon points="138.4,139.7 140.2,138 140.1,137.9 138.3,139.5 				"/>
				<polygon points="140.5,139.9 141.2,139.2 141.1,139.1 140.3,139.8 				"/>
				<polygon points="141.4,141 142.2,140.3 142,140.2 141.3,140.8 				"/>
				<polygon points="142.3,142.1 143.1,141.4 142.9,141.2 142.2,141.9 				"/>
				<polygon points="143.2,143.2 144,142.5 143.8,142.3 143.1,143 				"/>
				<polygon points="144.1,144.3 144.9,143.6 144.8,143.4 144,144.1 				"/>
				<polygon points="144.7,145.9 145.9,144.8 145.7,144.6 144.5,145.7 				"/>
				<polygon points="146.1,146.6 146.8,145.9 146.7,145.7 146,146.4 				"/>
				<polygon points="147,147.7 147.8,147 147.6,146.8 146.9,147.5 				"/>
				<polygon points="147.9,148.7 148.7,148.1 148.5,147.9 147.8,148.6 				"/>
				<polygon points="148.8,149.8 149.6,149.1 149.5,149 148.7,149.7 				"/>
				<polygon points="149.7,150.9 150.5,150.2 150.4,150.1 149.6,150.8 				"/>
				<polygon points="149.7,153.1 151.5,151.4 151.3,151.3 149.5,152.9 				"/>
				<polygon points="151.7,153.3 152.5,152.6 152.4,152.5 151.6,153.2 				"/>
				<polygon points="152.7,154.4 153.4,153.7 153.3,153.6 152.5,154.2 				"/>
				<polygon points="153.6,155.5 154.3,154.8 154.2,154.6 153.4,155.3 				"/>
				<polygon points="154.5,156.6 155.2,155.9 155.1,155.7 154.4,156.4 				"/>
				<polygon points="155.4,157.6 156.2,157 156,156.8 155.3,157.5 				"/>
				<polygon points="155.9,159.3 157.1,158.2 157,158 155.8,159.1 				"/>
				<polygon points="157.3,160 158.1,159.3 158,159.1 157.2,159.8 				"/>
				<polygon points="158.3,161.1 159,160.4 158.9,160.2 158.1,160.9 				"/>
				<polygon points="159.2,162.1 159.9,161.5 159.8,161.3 159,162 				"/>
				<polygon points="160.1,163.2 160.8,162.5 160.7,162.4 160,163.1 				"/>
				<polygon points="161,164.3 161.8,163.6 161.6,163.5 160.9,164.2 				"/>
				<polygon points="160.9,166.5 162.8,164.8 162.6,164.7 160.8,166.3 				"/>
			</g>
			<g>
				<polygon points="165.2,163.2 119.6,108.9 119.7,108.8 165.3,163 				"/>
				<polygon points="121.8,107.6 120,109.2 119.9,109.1 121.7,107.4 				"/>
				<polygon points="121.8,109.7 121,110.4 120.9,110.3 121.6,109.6 				"/>
				<polygon points="122.7,110.8 121.9,111.5 121.8,111.3 122.6,110.7 				"/>
				<polygon points="123.6,111.9 122.8,112.6 122.7,112.4 123.5,111.7 				"/>
				<polygon points="124.5,113 123.7,113.7 123.6,113.5 124.4,112.8 				"/>
				<polygon points="125.4,114.1 124.7,114.7 124.5,114.6 125.3,113.9 				"/>
				<polygon points="126.9,114.8 125.7,115.9 125.5,115.8 126.8,114.6 				"/>
				<polygon points="127.4,116.4 126.6,117.1 126.5,116.9 127.2,116.2 				"/>
				<polygon points="128.3,117.5 127.5,118.1 127.4,118 128.2,117.3 				"/>
				<polygon points="129.2,118.5 128.4,119.2 128.3,119.1 129.1,118.4 				"/>
				<polygon points="130.1,119.6 129.3,120.3 129.2,120.2 130,119.5 				"/>
				<polygon points="131,120.7 130.3,121.4 130.1,121.2 130.9,120.6 				"/>
				<polygon points="133.1,120.9 131.3,122.6 131.1,122.4 133,120.8 				"/>
				<polygon points="133,123.1 132.3,123.8 132.1,123.6 132.9,122.9 				"/>
				<polygon points="133.9,124.2 133.2,124.9 133,124.7 133.8,124 				"/>
				<polygon points="134.9,125.3 134.1,125.9 134,125.8 134.7,125.1 				"/>
				<polygon points="135.8,126.3 135,127 134.9,126.9 135.6,126.2 				"/>
				<polygon points="136.7,127.4 135.9,128.1 135.8,128 136.6,127.3 				"/>
				<polygon points="138.2,128.2 136.9,129.3 136.8,129.1 138,128 				"/>
				<polygon points="138.6,129.8 137.9,130.4 137.7,130.3 138.5,129.6 				"/>
				<polygon points="139.5,130.8 138.8,131.5 138.7,131.4 139.4,130.7 				"/>
				<polygon points="140.5,131.9 139.7,132.6 139.6,132.5 140.3,131.8 				"/>
				<polygon points="141.4,133 140.6,133.7 140.5,133.5 141.2,132.9 				"/>
				<polygon points="142.3,134.1 141.5,134.8 141.4,134.6 142.2,133.9 				"/>
				<polygon points="144.4,134.3 142.5,136 142.4,135.8 144.2,134.2 				"/>
				<polygon points="144.3,136.5 143.5,137.2 143.4,137 144.2,136.3 				"/>
				<polygon points="145.2,137.6 144.4,138.3 144.3,138.1 145.1,137.4 				"/>
				<polygon points="146.1,138.7 145.3,139.3 145.2,139.2 146,138.5 				"/>
				<polygon points="147,139.7 146.3,140.4 146.1,140.3 146.9,139.6 				"/>
				<polygon points="147.9,140.8 147.2,141.5 147,141.4 147.8,140.7 				"/>
				<polygon points="149.4,141.6 148.2,142.7 148,142.5 149.3,141.4 				"/>
				<polygon points="149.9,143.2 149.1,143.8 149,143.7 149.8,143 				"/>
				<polygon points="150.8,144.2 150,144.9 149.9,144.8 150.7,144.1 				"/>
				<polygon points="151.7,145.3 151,146 150.8,145.9 151.6,145.2 				"/>
				<polygon points="152.6,146.4 151.9,147.1 151.7,146.9 152.5,146.3 				"/>
				<polygon points="153.5,147.5 152.8,148.2 152.7,148 153.4,147.3 				"/>
				<polygon points="155.6,147.7 153.8,149.4 153.7,149.2 155.5,147.6 				"/>
				<polygon points="155.6,149.9 154.8,150.6 154.7,150.4 155.4,149.7 				"/>
				<polygon points="156.5,151 155.7,151.7 155.6,151.5 156.3,150.8 				"/>
				<polygon points="157.4,152.1 156.6,152.7 156.5,152.6 157.3,151.9 				"/>
				<polygon points="158.3,153.1 157.5,153.8 157.4,153.7 158.2,153 				"/>
				<polygon points="159.2,154.2 158.4,154.9 158.3,154.8 159.1,154.1 				"/>
				<polygon points="160.7,155 159.5,156.1 159.3,155.9 160.5,154.8 				"/>
				<polygon points="161.2,156.6 160.4,157.2 160.3,157.1 161,156.4 				"/>
				<polygon points="162.1,157.7 161.3,158.3 161.2,158.2 162,157.5 				"/>
				<polygon points="163,158.7 162.2,159.4 162.1,159.3 162.9,158.6 				"/>
				<polygon points="163.9,159.8 163.1,160.5 163,160.4 163.8,159.7 				"/>
				<polygon points="164.8,160.9 164,161.6 163.9,161.4 164.7,160.8 				"/>
				<polygon points="166.9,161.2 165.1,162.8 164.9,162.6 166.7,161 				"/>
			</g>
		</g>
		<g>
			<path fill="#6C5133" d="M156.3,120.3c-9.7-4.4-30.3,8.2-35.2,21.9c-5.5,15.2,3.8,22.5,12.4,27.9c8.6,5.5,21.1,3.6,27.9-13.4
				C168.1,139.8,169.1,126.1,156.3,120.3z"/>
			<path fill="#FFCB4B" d="M163.8,134.7c-0.6-13.6-0.5-10.7-3.6-11.8c-1.4-0.5-3.6-3.3-9.9-2.4c-8.9,1.3-23.9,11.4-27.5,21.2
				c-5,13.6,3.1,22.2,11.2,27.1c8,4.9,18.6,5.3,26-12.5C163.8,146.6,164,139.3,163.8,134.7z"/>
			<path fill="#FFDE6F" d="M155.7,159.9c2.7-4.8,5.7-12.7,4.9-19.1c-0.9-6.5-1.8-14.6-7.6-15.5c-5.8-0.8-12.4-0.1-18,5
				c-5.6,5.1-11.6,10.1-11.1,16.5c0.5,6.4,1,11.1,8.5,16.4c7.5,5.3,12.2,6.4,16.1,3.6C152.5,164.1,153.2,164.2,155.7,159.9z"/>
		</g>
		<path fill="#6C5133" d="M83.6,125.9c-3,8.2-9.6,28.4-18.3,33c-8.8,4.6-34.3-17.2-30.1-39.8C39.3,96.5,57.3,94,61,90.2
			c3.8-3.8,26.4,5.9,26.4,15.1C87.4,114.5,86,119.3,83.6,125.9z"/>
		<path fill="#FFCB4B" d="M82.5,125.8c-2.9,7.9-10.9,24.6-17.5,31.4c-18.2,18.8-35.8-12.1-28.7-37.9c5.8-21.1,26.6-28.9,30.2-32.4
			c3.6-3.6,19.7,10.5,19.7,19.3S84.8,119.5,82.5,125.8z"/>
		<g>
			<path fill="#6C5133" d="M61.2,131.5c-14.1-2.9-15-33.6-5.1-46.6c11-14.4,24.6-12.9,36.5-9.3c11.9,3.6,23.6,13.8,11.7,30.4
				C92.7,122.4,76.5,134.7,61.2,131.5z"/>
			<path fill="#FFCB4B" d="M78.4,127c-7.5,3.1-12.2,7.3-16.5,7.6c-1.9,0.1-11.1-5.9-12.6-8c-5.7-8,1.8-33,8.8-42.3
				c9.8-13,25.1-10.6,36-7.1c11,3.5,18.7,12.9,6.4,30.5C93.8,117.4,83.5,124.9,78.4,127z"/>
			<path fill="#FFDE6F" d="M102.9,100.6c-2.6,5-7.8,12-14.3,15.2c-6.6,3.2-14.8,7.4-19.6,3.4c-4.9-4-8.7-9.5-7.9-16.8
				c0.8-7.4,1.3-15,7.6-18.5c6.3-3.5,11-5.9,21.2-3.3c10.2,2.6,14.4,5.5,14.6,10.3C104.6,95.7,105.2,96.2,102.9,100.6z"/>
		</g>
	</g>
</g>
</svg>
