<?xml version="1.0" encoding="utf-8"?>
<!-- Generator: Adobe Illustrator 19.1.0, SVG Export Plug-In . SVG Version: 6.00 Build 0)  -->
<svg version="1.1" id="Layer_1" xmlns="http://www.w3.org/2000/svg" xmlns:xlink="http://www.w3.org/1999/xlink" x="0px" y="0px"
	 viewBox="0 0 340 170" enable-background="new 0 0 340 170" xml:space="preserve">
<g>
	<g>
		<path fill="#FFFFFF" d="M76.4,172.3V122c0-15.5,8.6-29,21.2-36.1c5.7,4,12.7,18.3,20.2,18.3c7.5,0,14.5-14.3,20.2-18.3
			c12.6,7.1,21.2,20.6,21.2,36.1v50.3H76.4z"/>
		<path fill="#FFFFFF" d="M164,172.3c-1.8-10.4-4.8-22.6-9.5-32.8l-5.9-45.1c0,0,19.2,20.5,28.6,77.9H164z"/>
		<g>
			<path fill="#FFE7D4" d="M5.3,89.5c6.3,10.9,11.3,9.3,11.3,9.3l3.6,5.6l5.7-2.1L23.2,97c1.9-1.9,3.1-4.1,3.4-6.7
				c0.1-0.8,0.2-1.7,0.1-2.5c-0.1-1.2-0.8-2.2-1-3.3c-0.2-0.9-0.2-3.1,0.4-3.8c2.7-2.8,1.1-3.8,1.1-3.8c-1.1-0.9-2.8-0.1-2.8-0.1
				c-3.4,1.5-3.4,7-3.4,7s-0.4,3.9-4,0.1c0,0-8.3-12.3-13.3-11.3C3.8,72.3-5.6,70.8,5.3,89.5z"/>
			<path fill="#FFFFFF" d="M29,96.8c28.8,45.3,55.9,0.3,55.9,0.3l-2.1,22.2c-31.3,25.4-58.1-0.1-69-13.7L29,96.8z"/>
			<g>
				<ellipse fill="#754C28" cx="117.8" cy="40.8" rx="36.2" ry="38.8"/>
				<g>
					<ellipse fill="#FFDEB5" cx="150.6" cy="56.5" rx="5.9" ry="6.2"/>
					<ellipse fill="#FFDEB5" cx="85.3" cy="56.5" rx="5.9" ry="6.2"/>
				</g>
				<circle fill="#FFDEB5" cx="117.8" cy="52.1" r="33.8"/>
				<path fill="#754C28" d="M149.3,33.1c0,0-49.8,32.3-85.4-8.4l10.8,2.4L73,21.9c0,0,7.3,7.5,18.2-7.1
					C91.2,14.7,126.8-2.9,149.3,33.1z"/>
				<g>
					<circle fill="#3B2314" cx="132.8" cy="55.8" r="3.2"/>
					<circle fill="#3B2314" cx="104.1" cy="55.8" r="3.2"/>
				</g>
			</g>
			<g>
				<path fill="#F1F1F2" d="M117,137.8L136.7,87c0.4-0.4,0.9-0.8,1.3-1.1c2.3,1.3,4.5,2.8,6.6,4.6l2,10.9l-5.8,1.4l5.8,9.2
					L117,137.8z"/>
				<path fill="#F1F1F2" d="M121,142.8L99,87c-0.4-0.4-0.9-0.8-1.3-1.1c-2.3,1.3-4.5,2.8-6.6,4.6l-2,10.9l5.8,1.4l-5.8,9.2
					L121,142.8z"/>
				<path fill="#ADC4E5" d="M117.9,135.4L97.7,85.9c0,0,0,0,0,0c5.7,4,20.1,10.1,20.2,10.1c0.2,0,14.4-6,20.1-10L117.9,135.4z"/>
				<polygon fill="#A1BCE2" points="117.8,96 130.5,104.4 117.9,135.4 104.9,103.7 				"/>
				<polygon fill="#23334F" points="118,97.7 124.3,101.9 121.3,107 114.6,107 111.4,101.5 117.7,97.7 				"/>
				<polygon fill="#23334F" points="123.2,119.7 117.9,132.7 112.5,119.5 114.4,107.7 121.3,107.7 				"/>
				<g>
					<circle fill="#BBBDBF" cx="144.8" cy="128.4" r="5.4"/>
					<path fill="#23334F" d="M144.8,129.2c0.5,0,0.9-0.4,0.9-0.9v-39c0-0.5-0.4-0.9-0.9-0.9c-0.5,0-0.9,0.4-0.9,0.9v39
						C143.9,128.8,144.3,129.2,144.8,129.2z"/>
					<circle fill="#F1F1F2" cx="144.8" cy="128.4" r="2.7"/>
					<circle fill="#B1B3B5" cx="144.8" cy="128.4" r="2.1"/>
				</g>
				<g>
					<path fill="#23334F" d="M91,111.3c0.5,0,0.9-0.4,0.9-0.9V89.3c0-0.5-0.4-0.9-0.9-0.9s-0.9,0.4-0.9,0.9v21.1
						C90.1,110.9,90.5,111.3,91,111.3z"/>
					<path fill="#929497" d="M85.8,142.8c0.5,0,1.2-0.2,2-0.7l-1-1.4c-0.3,0.2-0.8,0.5-1.2,0.4c-0.5-0.2-0.8-1-0.9-1.2
						c-0.1-0.2-5.9-19-0.4-25.9c1.5-1.9,3.7-2.7,6.8-2.4c3.2,0.3,5.5,1.5,7,3.9c4.8,7.7-1.5,24.2-1.6,24.3c0,0.1-0.3,0.9-0.9,1.2
						c-0.4,0.2-1,0.1-1.7-0.3l-0.8,1.5c1.2,0.7,2.3,0.8,3.2,0.4c1.4-0.6,1.9-2.1,1.9-2.2c0.3-0.6,6.7-17.3,1.4-25.8
						c-1.7-2.8-4.5-4.4-8.3-4.7c-3.6-0.3-6.4,0.7-8.3,3.1c-6.1,7.6-0.2,26.6,0.1,27.4c0,0.2,0.5,1.8,1.9,2.3
						C85.2,142.7,85.4,142.8,85.8,142.8z"/>
					
						<ellipse transform="matrix(-0.8966 -0.4429 0.4429 -0.8966 113.8752 308.6917)" fill="#23334F" cx="93" cy="141.1" rx="1.3" ry="2.5"/>
					
						<ellipse transform="matrix(0.8966 -0.4429 0.4429 0.8966 -53.4394 53.2529)" fill="#23334F" cx="87.3" cy="141.1" rx="1.3" ry="2.5"/>
				</g>
			</g>
		</g>
	</g>
	<g>
		<g>
			<g>
				<path fill="#FFFFFF" d="M240.7,105.4c-5.1,3.6-11.4,16.5-18.1,16.5c-6.7,0-13-12.8-18.1-16.5c-11.4,6.4-19.1,18.6-19.1,32.5
					v34.5h74.4v-34.5C259.8,124,252.1,111.8,240.7,105.4z"/>
				<path fill="#ADC4E5" d="M222.6,140.2l8.9-20.7l8.6-5l0.7-9c0,0,0,0,0,0c-5.1,3.6-18.1,9-18.1,9c-0.2,0-13-5.4-18.1-9l1.3,9.4
					l7.1,4.6L222.6,140.2z"/>
			</g>
			<g>
				<g>
					<path fill="#754C28" d="M252.3,70.6c0-16.5-13.9-29.9-30.9-29.9h0.7c-17.1,0-30.9,13.4-30.9,29.9c0,0,0.1,21.5,15.2,26.8h31.8
						C238.1,97.5,252.3,93,252.3,70.6z"/>
					<circle fill="#FFDEB5" cx="222.5" cy="79.7" r="25.7"/>
					<g>
						<circle fill="#3B2314" cx="211.2" cy="82.5" r="2.4"/>
						<circle fill="#3B2314" cx="233" cy="82.5" r="2.4"/>
					</g>
					<path fill="#754C28" d="M248.9,79c0,0,3.4-32.5-27.2-32.2c0,0-26.5,0-26.5,31.9c0,0,9.7-3.8,14.5-17.4
						C209.7,61.3,222.1,79.7,248.9,79z"/>
				</g>
			</g>
			<path fill="#F1F1F2" d="M230.1,117.9l-7.5,22.7l11-20.3c0,0,7.7-0.7,13-10.7c-1.8-1.5-3.8-2.9-5.8-4.1
				C240.7,105.4,239.6,114.2,230.1,117.9z"/>
			<path fill="#F1F1F2" d="M215.1,117.9l7.5,22.7l-11-20.3c0,0-7.7-0.7-13-10.7c1.8-1.5,3.8-2.9,5.8-4.1
				C204.5,105.4,205.6,114.2,215.1,117.9z"/>
		</g>
		<g>
			<path fill="#FFFFFF" d="M198.8,58.1c0,0,20.6-10.1,44.8,0l8.7-19.9c0,0-29.4-16.1-61.2,0L198.8,58.1z"/>
			<g>
				<circle fill="#ED6843" cx="221.7" cy="42.3" r="8.2"/>
				<polygon fill="#FFFFFF" points="227.3,40.8 223.3,40.8 223.3,36.9 220.2,36.9 220.2,40.8 216.3,40.8 216.3,43.9 220.2,43.9 
					220.2,47.8 223.3,47.8 223.3,43.9 227.3,43.9 				"/>
			</g>
		</g>
	</g>
	<g>
		<g>
			<g>
				<g>
					<path fill="#FFFFFF" d="M322.4,109.6c-4.7,3.4-10.5,5.5-16.7,5.5c-6.2,0-12-2.1-16.7-5.5c-10.5,5.9-17.6,17.1-17.6,30v31.8H340
						v-31.8C340,126.7,332.9,115.5,322.4,109.6z"/>
				</g>
			</g>
		</g>
		<path fill="#ADC4E5" d="M305.6,117c7.4,0,14.3-2.1,20-5.4c-1-0.8-2.1-1.5-3.3-2.1c-4.7,3.4-10.5,5.5-16.7,5.5
			c-6.2,0-12-2.1-16.7-5.5c-1.1,0.6-2.2,1.3-3.3,2.1C291.3,115,298.2,117,305.6,117z"/>
		<g>
			<ellipse fill="#754C28" cx="305.5" cy="77.9" rx="25.4" ry="27.2"/>
			<g>
				<ellipse fill="#FFDEB5" cx="282.5" cy="88.9" rx="4.1" ry="4.3"/>
				<ellipse fill="#FFDEB5" cx="328.4" cy="88.9" rx="4.1" ry="4.3"/>
			</g>
			<circle fill="#FFDEB5" cx="305.5" cy="85.9" r="23.7"/>
			<g>
				<circle fill="#3B2314" cx="295" cy="88.5" r="2.2"/>
				<circle fill="#3B2314" cx="315.2" cy="88.5" r="2.2"/>
			</g>
		</g>
		<path fill="#FFFFFF" d="M305.6,94c-7.2,0-13.9-1.2-19.5-3.4c2.1,10.2,10,17.8,19.5,17.8c9.5,0,17.4-7.6,19.5-17.8
			C319.4,92.7,312.8,94,305.6,94z"/>
		<path fill="#FFFFFF" d="M324.2,92.3c-0.1,0-0.2,0-0.3-0.1c-0.2-0.2-0.3-0.5-0.1-0.7l5.4-7.5c0.2-0.2,0.5-0.3,0.7-0.1
			c0.2,0.2,0.3,0.5,0.1,0.7l-5.4,7.5C324.6,92.2,324.4,92.3,324.2,92.3z"/>
		<path fill="#FFFFFF" d="M321,99.8c-0.2,0-0.3-0.1-0.4-0.2c-0.2-0.2-0.1-0.6,0.1-0.7l7.4-5.4c0.2-0.2,0.6-0.1,0.8,0.1
			c0.2,0.2,0.1,0.6-0.1,0.7l-7.4,5.4C321.2,99.7,321.1,99.8,321,99.8z"/>
		<path fill="#FFFFFF" d="M286.8,92.3c0.1,0,0.2,0,0.3-0.1c0.2-0.2,0.3-0.5,0.1-0.7l-5.4-7.5c-0.2-0.2-0.5-0.3-0.7-0.1
			c-0.2,0.2-0.3,0.5-0.1,0.7l5.4,7.5C286.4,92.2,286.6,92.3,286.8,92.3z"/>
		<path fill="#FFFFFF" d="M290,99.8c0.2,0,0.3-0.1,0.4-0.2c0.2-0.2,0.1-0.6-0.1-0.7l-7.4-5.4c-0.2-0.2-0.6-0.1-0.8,0.1
			c-0.2,0.2-0.1,0.6,0.1,0.7l7.4,5.4C289.8,99.7,289.9,99.8,290,99.8z"/>
		<path fill="#FFFFFF" d="M279.9,81.9c0,0,27.1,6,51.4,0c0,0,7.7-32.4-27.1-32.4C274.4,49.5,279.9,81.9,279.9,81.9z"/>
	</g>
</g>
</svg>
