<?xml version="1.0" encoding="utf-8"?>
<!-- Generator: Adobe Illustrator 19.1.0, SVG Export Plug-In . SVG Version: 6.00 Build 0)  -->
<svg version="1.1" id="Layer_1" xmlns="http://www.w3.org/2000/svg" xmlns:xlink="http://www.w3.org/1999/xlink" x="0px" y="0px"
	 viewBox="0 0 400 42" enable-background="new 0 0 400 42" xml:space="preserve">
<g>
	<path fill="#FFFFFF" d="M8.7,35.1c-1.8,0.2-3.4,0.3-5,0.3c-1.6,0-2.6-0.1-3.1-0.3c-0.5-0.2-0.7-0.5-0.7-1V5.4C0,4.6,0.4,4,1.1,3.7
		c0.7-0.3,2-0.5,4-0.5h15.1c0.6,0,0.9,1.1,0.9,3.4c0,2.3-0.1,4-0.4,5.2c-0.3,1.2-0.6,1.8-1,1.8l-8.3-0.5v3.1c3.6-0.2,6-0.3,7.3-0.3
		c0.4,0,0.7,0.2,0.8,0.7c0.1,0.5,0.2,1.4,0.2,2.8c0,1.4-0.1,2.7-0.4,3.9c-0.3,1.3-0.7,1.9-1.1,1.9L11.4,25v9.1
		C11.4,34.6,10.5,34.9,8.7,35.1z"/>
	<path fill="#FFFFFF" d="M34.7,2.2v32.2c0,0.3-0.8,0.6-2.3,0.8c-1.6,0.2-3.1,0.3-4.8,0.3c-1.6,0-2.7-0.1-3.2-0.2
		c-0.5-0.2-0.7-0.4-0.7-0.8V3c0-0.7,0.8-1.3,2.3-1.9c1.5-0.6,3.2-1,5-1C33.5,0.1,34.7,0.8,34.7,2.2z"/>
	<path fill="#FFFFFF" d="M45.8,35.8c-3,0-5.2-0.9-6.4-2.6c-1.2-1.8-1.8-4.8-1.8-9.2V11.7c0-0.6,0.8-1.2,2.4-1.7
		c1.6-0.6,3.3-0.8,5.1-0.8c2.4,0,3.5,0.7,3.5,2v11.5c0,2.3,0.1,4,0.2,5c0.2,1,0.6,1.6,1.2,1.6c0.9,0,1.3-0.4,1.3-1.2V11.7
		c0-0.6,0.8-1.2,2.5-1.8c1.7-0.5,3.5-0.8,5.5-0.8c2,0,3,0.6,3,1.8v23.3c0,0.4-0.9,0.7-2.6,0.9c-1.7,0.2-3.4,0.3-5.1,0.3
		c-1.7,0-2.5-0.2-2.5-0.7l-0.4-2.9h-0.3c-0.2,1.1-0.7,2-1.5,2.7c-0.4,0.4-0.9,0.7-1.7,1C47.6,35.7,46.7,35.8,45.8,35.8z"/>
	<path fill="#FFFFFF" d="M82.6,26.8H66.1c-0.3,0-0.6-0.3-0.8-0.8c-0.2-0.6-0.3-1.4-0.3-2.4c0-1,0.3-2.1,0.9-3.2
		c0.6-1.1,1.2-1.6,1.8-1.6h16.4c0.7,0,1.1,1,1.1,2.9c0,1-0.3,2.1-0.9,3.3C83.7,26.2,83.2,26.8,82.6,26.8z"/>
	<path fill="#FFFFFF" d="M99.4,34.1c0,0.4-0.8,0.7-2.5,1c-1.7,0.2-3.3,0.4-5,0.4s-2.7-0.1-3.2-0.3c-0.5-0.2-0.7-0.5-0.7-1V5
		c0-0.8,0.9-1.3,2.7-1.7c1.8-0.3,4-0.5,6.8-0.5c2.7,0,4.5,0,5.3,0c0.8,0,1.7,0.1,2.8,0.2c1.1,0.1,2,0.2,2.6,0.5
		c0.6,0.2,1.3,0.5,2.1,0.8c0.8,0.3,1.4,0.8,1.8,1.3c0.4,0.5,0.9,1.2,1.3,1.9c0.7,1.3,1.1,3.1,1.1,5.6s-0.4,4.4-1.1,6.1
		c-0.7,1.6-1.7,2.9-2.9,3.7c3.1,5.5,4.7,8.9,4.7,10.4c0,1.5-2.7,2.2-8,2.2c-1.6,0-2.6-0.1-3.2-0.2c-0.6-0.2-1-0.5-1.1-1l-2.7-9.3
		l-0.7,0V34.1z M99.4,17.8h1.1c1.6,0,2.4-1.4,2.4-4.1c0-1.4-0.2-2.4-0.6-2.9c-0.4-0.6-0.9-0.9-1.4-0.9h-1.3V17.8z"/>
	<path fill="#FFFFFF" d="M127.7,25.2c0,2,0.8,2.9,2.5,2.9c1,0,2.3-0.4,3.8-1.1c1.6-0.7,2.4-1.1,2.5-1.1c0.5,0,1.2,0.9,2,2.6
		c0.8,1.7,1.3,3,1.3,3.8c0,1.2-1.1,2.1-3.3,2.7c-2.2,0.6-4.3,0.9-6.4,0.9s-3.8-0.2-5.2-0.5c-1.4-0.4-2.5-0.8-3.4-1.4
		c-0.9-0.6-1.7-1.2-2.3-2.1c-0.7-0.8-1.2-1.6-1.5-2.3c-0.3-0.7-0.6-1.6-0.8-2.5c-0.3-1.3-0.4-2.7-0.4-4.1c0-5.5,1.3-9.3,3.9-11.4
		c1.3-1.1,2.7-1.8,4.3-2.2c1.6-0.4,3.4-0.6,5.6-0.6c6.9,0,10.3,2.7,10.3,8c0,5.7-3.9,8.5-11.6,8.5H127.7z M127.6,18.6v3
		c0.8,0,1.4-0.3,1.9-1c0.5-0.7,0.8-1.5,0.8-2.5c0-1.8-0.4-2.7-1.3-2.7C128.1,15.3,127.6,16.4,127.6,18.6z"/>
	<path fill="#FFFFFF" d="M143.1,40.9V12.1c0-0.6,0.8-1.3,2.3-1.9c1.5-0.7,3.2-1,4.9-1c0.8,0,1.5,0.1,1.9,0.3
		c0.5,0.2,0.7,0.4,0.9,0.6c0.1,0.2,0.3,1.1,0.6,2.7h0.3c0.1-0.3,0.3-0.7,0.7-1.3c0.4-0.6,0.9-1,1.3-1.4c0.4-0.4,1.1-0.7,1.9-1
		c0.8-0.3,1.8-0.4,3-0.4c1.1,0,2.2,0.3,3.1,0.8c0.9,0.6,1.6,1.2,2.1,1.9c0.4,0.7,0.8,1.7,1.1,2.8c0.3,1.1,0.4,2,0.4,2.7
		c0,0.7,0.1,1.7,0.1,2.9c0,1.3,0,2.6-0.1,3.8c-0.1,1.3-0.2,2.5-0.4,3.8c-0.2,1.3-0.5,2.4-0.9,3.4c-0.4,0.9-0.9,1.8-1.5,2.5
		c-1.3,1.5-3.1,2.3-5.5,2.3c-0.9,0-1.6-0.1-2.3-0.4c-0.7-0.3-1.2-0.6-1.5-1c-0.7-0.8-1.1-1.5-1.2-2.2l0-0.5h-0.3l0.6,4.1v5.1
		c0,0.3-0.8,0.6-2.3,0.8c-1.6,0.2-3.2,0.3-4.8,0.3c-1.6,0-2.7-0.1-3.3-0.2C143.4,41.6,143.1,41.3,143.1,40.9z M156.3,16.8
		c-0.2-1-0.6-1.5-1.1-1.5c-0.5,0-0.8,0.3-1.1,0.9V28c0,0.8,0.4,1.2,1.1,1.2c1,0,1.4-2.3,1.4-7C156.6,19.6,156.5,17.8,156.3,16.8z"/>
	<path fill="#FFFFFF" d="M182.7,35.8c-2,0-3.8-0.2-5.3-0.6c-1.5-0.4-2.8-1.1-4-2.1c-2.5-2-3.7-5.7-3.7-11.1c0-4.8,1.3-8.3,3.8-10.4
		c2.4-1.9,5.4-2.9,9.2-2.9c1.6,0,3,0.1,4.1,0.2c1.1,0.2,2.3,0.5,3.5,1.1c1.2,0.5,2.1,1.3,2.9,2.2c0.7,0.9,1.3,2.2,1.8,3.9
		c0.5,1.6,0.7,3.6,0.7,5.9c0,4.6-1.2,8-3.5,10.4C189.8,34.7,186.6,35.8,182.7,35.8z M181.3,27c0.2,1.1,0.4,1.7,0.6,1.9
		c0.2,0.2,0.5,0.3,0.8,0.3c0.3,0,0.6-0.1,0.8-0.3c0.2-0.2,0.4-0.9,0.6-1.9c0.2-1.1,0.3-2.5,0.3-4.1c0-1.6,0-2.9-0.1-3.8
		c-0.1-0.9-0.1-1.6-0.2-2.1c-0.1-0.5-0.2-0.9-0.4-1.1c-0.2-0.4-0.5-0.6-0.9-0.6s-0.6,0.1-0.8,0.3c-0.2,0.2-0.4,0.9-0.6,2
		c-0.2,1.1-0.3,2.7-0.3,4.7C181,24.4,181.1,25.9,181.3,27z"/>
	<path fill="#FFFFFF" d="M209.1,21.1v13.2c0,0.3-0.8,0.6-2.3,0.8c-1.5,0.2-3.1,0.3-4.8,0.3s-2.7-0.1-3.2-0.2
		c-0.5-0.2-0.7-0.4-0.7-0.8V12c0-0.6,0.8-1.2,2.3-1.9c1.5-0.7,3.2-1,4.9-1c1.8,0,2.8,0.5,3,1.6l0.4,2.1h0.3c0.4-1.1,1.3-2.1,2.7-2.9
		c1.4-0.8,2.9-1.2,4.3-1.2c1.4,0,2.5,0.3,3,0.8c0.6,0.5,0.9,1.2,0.9,2c0,0.8-0.1,1.8-0.2,3.1c-0.1,1.2-0.4,2.6-0.8,4
		c-0.4,1.5-1,2.2-1.7,2.2c-0.3,0-1.1-0.2-2.6-0.7c-1.4-0.5-2.6-0.7-3.6-0.7s-1.5,0.2-1.8,0.5C209.2,20.1,209.1,20.6,209.1,21.1z"/>
	<path fill="#FFFFFF" d="M238,35c-0.5,0.5-1.6,0.8-3.3,0.8s-3.2-0.1-4.3-0.4c-1.1-0.3-2.2-0.8-3.3-1.5c-2-1.5-3-4.6-3-9.2v-7.1h-2
		c-0.3,0-0.6-0.3-0.8-1c-0.2-0.7-0.3-1.6-0.3-2.9c0-1.2,0.2-2.3,0.5-3.2c0.3-0.9,0.8-1.4,1.3-1.4h1.3V3.6c0-0.9,0.8-1.7,2.5-2.3
		c1.6-0.6,3.3-0.9,4.8-0.9c2.5,0,3.7,0.7,3.7,2v6.6h3c0.7,0,1.1,1.1,1.1,3.4c0,1.5-0.2,2.7-0.5,3.6c-0.3,1-0.7,1.4-1.2,1.4h-2.4v8.3
		c0,0.8,0.3,1.4,0.9,1.7c0.6,0.3,1.2,0.5,1.7,0.5s0.8,0.3,0.9,0.8c0.1,0.5,0.2,1.3,0.2,2.3C238.7,33.2,238.5,34.5,238,35z"/>
	<path fill="#FFFFFF" d="M252.4,25.2c0,2,0.8,2.9,2.5,2.9c1,0,2.3-0.4,3.8-1.1c1.6-0.7,2.4-1.1,2.5-1.1c0.5,0,1.2,0.9,2,2.6
		c0.8,1.7,1.3,3,1.3,3.8c0,1.2-1.1,2.1-3.3,2.7c-2.2,0.6-4.3,0.9-6.4,0.9c-2.1,0-3.8-0.2-5.2-0.5c-1.4-0.4-2.5-0.8-3.4-1.4
		c-0.9-0.6-1.7-1.2-2.3-2.1c-0.7-0.8-1.2-1.6-1.5-2.3c-0.3-0.7-0.6-1.6-0.8-2.5c-0.3-1.3-0.4-2.7-0.4-4.1c0-5.5,1.3-9.3,3.9-11.4
		c1.3-1.1,2.7-1.8,4.3-2.2c1.6-0.4,3.4-0.6,5.6-0.6c6.9,0,10.3,2.7,10.3,8c0,5.7-3.9,8.5-11.6,8.5H252.4z M252.3,18.6v3
		c0.8,0,1.4-0.3,1.9-1c0.5-0.7,0.8-1.5,0.8-2.5c0-1.8-0.4-2.7-1.3-2.7C252.8,15.3,252.3,16.4,252.3,18.6z"/>
	<path fill="#FFFFFF" d="M278.8,21.1v13.2c0,0.3-0.8,0.6-2.3,0.8c-1.5,0.2-3.1,0.3-4.8,0.3s-2.7-0.1-3.2-0.2
		c-0.5-0.2-0.7-0.4-0.7-0.8V12c0-0.6,0.8-1.2,2.3-1.9c1.5-0.7,3.2-1,4.9-1c1.8,0,2.8,0.5,3,1.6l0.4,2.1h0.3c0.4-1.1,1.3-2.1,2.7-2.9
		c1.4-0.8,2.9-1.2,4.3-1.2c1.4,0,2.5,0.3,3,0.8c0.6,0.5,0.9,1.2,0.9,2c0,0.8-0.1,1.8-0.2,3.1c-0.1,1.2-0.4,2.6-0.8,4
		c-0.4,1.5-1,2.2-1.7,2.2c-0.3,0-1.1-0.2-2.6-0.7c-1.4-0.5-2.6-0.7-3.6-0.7s-1.5,0.2-1.8,0.5C278.9,20.1,278.8,20.6,278.8,21.1z"/>
	<path fill="#FFFFFF" d="M300.5,31.2c0,1.8-0.4,3-1.1,3.7c-0.7,0.7-1.8,1-3.2,1c-1.4,0-2.5-0.3-3.2-1c-0.7-0.7-1.1-1.9-1.1-3.7
		c0-1.8,0.4-3,1.1-3.6c0.7-0.6,1.8-0.9,3.2-0.9c1.4,0,2.5,0.3,3.2,0.9C300.2,28.2,300.5,29.4,300.5,31.2z"/>
	<path fill="#FFFFFF" d="M309.3,0.1c1.8,0,3.2,0.3,4.2,0.9c1,0.6,1.5,1.7,1.5,3.2c0,2.7-1.9,4.1-5.7,4.1c-3.8,0-5.7-1.4-5.7-4.1
		S305.5,0.1,309.3,0.1z M314.8,12v22.3c0,0.3-0.8,0.6-2.3,0.8c-1.6,0.2-3.2,0.3-4.8,0.3c-1.6,0-2.7-0.1-3.2-0.2
		c-0.5-0.2-0.7-0.4-0.7-0.8V12.8c0-0.7,0.8-1.3,2.3-2c1.5-0.6,3.2-1,5-1C313.6,9.9,314.8,10.6,314.8,12z"/>
	<path fill="#FFFFFF" d="M342.5,20.4v14c0,0.3-0.8,0.6-2.3,0.8c-1.5,0.2-3.1,0.3-4.8,0.3c-1.6,0-2.7-0.1-3.2-0.2
		c-0.5-0.2-0.7-0.4-0.7-0.8V19.9c0-1.4,0-2.3-0.1-2.7c-0.1-0.4-0.2-0.8-0.3-1.1c-0.2-0.6-0.5-0.9-1-0.9c-0.8,0-1.1,0.4-1.1,1.2v17.9
		c0,0.3-0.8,0.6-2.3,0.8c-1.5,0.2-3.1,0.3-4.8,0.3s-2.7-0.1-3.2-0.2c-0.5-0.2-0.7-0.4-0.7-0.8V12c0-0.6,0.8-1.3,2.3-1.9
		c1.6-0.6,3.2-1,5-1s2.7,0.6,2.9,1.7l0.4,2h0.3c0.8-1.8,2.1-3,4.1-3.7c0.8-0.3,1.7-0.4,2.6-0.4c2.7,0,4.6,0.9,5.6,2.7
		C342,13.3,342.5,16.3,342.5,20.4z"/>
	<path fill="#FFFFFF" d="M358.5,20.5v13.9c0,0.3-0.7,0.6-2.2,0.8c-1.5,0.2-3.3,0.3-5.5,0.3c-2.2,0-3.3-0.4-3.3-1.1V20.5h-2.1
		c-0.7,0-1.1-1.4-1.1-4.1c0-1.1,0.2-2.1,0.5-3.1c0.3-1,0.8-1.4,1.3-1.4h1.3c0-2,0.3-3.8,0.8-5.3c0.5-1.5,1.2-2.7,1.9-3.5
		c0.7-0.8,1.7-1.4,2.7-1.9c1.6-0.7,3.4-1.1,5.4-1.1c5.1,0,7.6,0.9,7.6,2.8c0,2-0.2,3.6-0.5,4.9c-0.4,1.3-0.8,1.9-1.4,1.9
		c-0.2,0-0.7-0.1-1.4-0.3c-0.7-0.2-1.3-0.3-1.9-0.3c-1.6,0-2.4,0.6-2.4,1.8c0,0.3,0.1,0.6,0.2,1h5.4c0.7,0,1.1,1.3,1.1,4
		c0,1.2-0.2,2.2-0.5,3.2c-0.3,1-0.7,1.4-1.2,1.4H358.5z"/>
	<path fill="#FFFFFF" d="M380.7,35.8c-2,0-3.8-0.2-5.3-0.6c-1.5-0.4-2.8-1.1-4-2.1c-2.5-2-3.7-5.7-3.7-11.1c0-4.8,1.3-8.3,3.8-10.4
		c2.4-1.9,5.4-2.9,9.2-2.9c1.6,0,3,0.1,4.1,0.2c1.1,0.2,2.3,0.5,3.5,1.1c1.2,0.5,2.1,1.3,2.9,2.2c0.7,0.9,1.3,2.2,1.8,3.9
		c0.5,1.6,0.7,3.6,0.7,5.9c0,4.6-1.2,8-3.5,10.4C387.8,34.7,384.6,35.8,380.7,35.8z M379.3,27c0.2,1.1,0.4,1.7,0.6,1.9
		c0.2,0.2,0.5,0.3,0.8,0.3c0.3,0,0.6-0.1,0.8-0.3c0.2-0.2,0.4-0.9,0.6-1.9c0.2-1.1,0.3-2.5,0.3-4.1c0-1.6,0-2.9-0.1-3.8
		c-0.1-0.9-0.1-1.6-0.2-2.1c-0.1-0.5-0.2-0.9-0.4-1.1c-0.2-0.4-0.5-0.6-0.9-0.6s-0.6,0.1-0.8,0.3c-0.2,0.2-0.4,0.9-0.6,2
		c-0.2,1.1-0.3,2.7-0.3,4.7C379,24.4,379.1,25.9,379.3,27z"/>
</g>
</svg>
