<?xml version="1.0" encoding="utf-8"?>
<!-- Generator: Adobe Illustrator 19.1.0, SVG Export Plug-In . SVG Version: 6.00 Build 0)  -->
<svg version="1.1" id="Layer_1" xmlns="http://www.w3.org/2000/svg" xmlns:xlink="http://www.w3.org/1999/xlink" x="0px" y="0px"
	 viewBox="-44 -109 200 260" style="enable-background:new -44 -109 200 260;" xml:space="preserve">
<style type="text/css">
	.st0{fill:#544028;}
	.st1{fill:#FFCF4C;}
	.st2{fill:#FFC123;}
	.st3{fill:#FFFFFF;}
	.st4{fill:#F5ECC7;}
	.st5{fill:#FFFAE7;}
	.st6{fill:#000A0A;}
	.st7{fill:#DCE3E8;}
	.st8{fill:#44281E;}
	.st9{fill:#AE4F60;}
	.st10{fill:#934B43;}
	.st11{fill:#4F2F23;}
	.st12{fill:#733B35;}
	.st13{fill:#253845;}
	.st14{fill:#FFFDD4;}
	.st15{fill:#F7F4F0;}
	.st16{fill:#FFE887;}
	.st17{fill:#0E2F43;}
	.st18{fill:#E79D1A;stroke:#603800;stroke-width:3.630500e-02;}
	.st19{fill:#F5F2EF;}
	.st20{fill:#21313D;}
	.st21{fill:#FF4C97;}
	.st22{fill:#693E2E;}
	.st23{fill:#8B463F;}
	.st24{fill:#572543;}
	.st25{fill:#503E39;}
	.st26{fill:#6B534B;}
	.st27{fill:#FFD8A8;}
	.st28{fill:#FFAB4A;}
	.st29{fill:#FFE9B3;}
	.st30{fill:#FBA14B;}
	.st31{fill:#EB9646;}
	.st32{fill:#FBCC85;}
	.st33{fill:#69450D;}
</style>
<g>
	<g>
		<path class="st0" d="M-20.7,57.7c2.6,1,15.1,3.5,19.5,5.4c5.1,2.3,9.6,3.3,10.3,2.3c4.6-6.9,4-7,4.5-12.7
			c1.1-11.9,0.8-16.1-1.5-17.9c-9.5-7.2-15.6-3.4-17.2-4C-7.3,30-20.7,57.7-20.7,57.7z"/>
		<path class="st1" d="M-19.7,57.3c2.5,0.9,14.7,3.3,19,5.2c5,2.2,9.8,6.1,10.4,5.1c4.5-6.7,6.7-9.5,7.3-15
			c1.1-11.5,0-16.7-3.5-18.2c-10.2-4.3-18.2-3-20.3-3.9C-9,29.7-19.7,57.3-19.7,57.3z"/>
		<g>
			<path class="st0" d="M-36.1,43.5c0.4,3.5,1.9,8.5,6.8,11.3c5,2.8,15.2,6.5,25.6,3.2c4.2-1.4,6.9-16.6,6.5-21.3
				C2.2,30.1-2.8,25.2-7.5,22.5c-7.5-4.3-11.3-3-13.2-2.6c-1.9,0.5-7.8,5.1-11.6,12.1C-36.2,39-36.3,41.3-36.1,43.5z"/>
			<path class="st1" d="M-35.7,43.3c0.3,3.5,2.2,8.6,7.1,11.4c3.9,2.2,13.6,5,21.4,4.3c2.1-0.2,5.2,0.6,6.8-0.1
				c4-1.9,6.5-12.7,5.6-17.3C3.5,32.8-2.1,26.1-7,23.2c-6.4-3.7-9.8-3.7-11.7-3.2c-1.9,0.5-9.8,5.1-13.7,12
				C-36.2,39-35.9,41-35.7,43.3z"/>
			<path class="st2" d="M-10.4,58.9c-2.5-0.5-7-1.1-8.8-3.4c-1.7-2.3,1.6-4.9,5.7-8.9c4-4,5.1-9.5,5.2-12.7c0.1-3.2,1.5-6,3.1-6.7
				c0.8-0.3,0.8-1.4,0.4-2.5c-0.7-0.6-1.4-1.1-2.2-1.5c-6.4-3.7-9.8-3.7-11.7-3.2c-1.9,0.5-9.8,5.1-13.7,12c-3.9,7-3.6,9-3.4,11.2
				c0.3,3.5,2.2,8.6,7.1,11.4c3.5,2,11.6,4.4,18.8,4.4C-10,59-10.2,58.9-10.4,58.9z"/>
			<g>
				<path class="st0" d="M-16.9,20.1c4.1-0.3,9.9,2.3,10.7,5.3c0.6,2.4-4.4,1.6-6.2,1.2C-15.6,25.9-16.9,20.1-16.9,20.1z"/>
				<path class="st3" d="M-16.4,20.6c3.9-0.3,9.3,2.2,10,4.7c0.6,2.4-4.1,1.2-5.8,0.8C-15.3,25.5-16.4,20.6-16.4,20.6z"/>
			</g>
			<g>
				<path class="st0" d="M-12.2,41.6c5.4-8.7,4.8-19.5-2.3-21.8c-6.9-2.2-13.1,2.3-18,10.5c-5,8.2-5.2,17.6,1.2,21.2
					C-25.1,55.2-19.1,52.6-12.2,41.6z"/>
				<path class="st4" d="M-12.6,41.4c5.3-8.5,4.7-19-2.2-21.2c-6.7-2.2-12.7,2.3-17.5,10.4c-4.9,8-5.1,17.2,1.1,20.7
					C-25.2,54.7-19.3,52.1-12.6,41.4z"/>
				<path class="st5" d="M-15,41c0.5-0.9,3.1-5.9,3.8-8.8c1.1-4.3-0.7-9.2-2.7-10.4c-2-1.2-5.4-2.5-9.6,0.2c-4.2,2.8-9,10.3-9.9,12
					c-0.9,1.7,0,3.8,3.1,1.9c2.5-1.6,6.5,2,5,7.3c-1.4,5.2,1.9,6.6,4,5.1C-19.1,46.9-16.8,44.1-15,41z"/>
			</g>
		</g>
	</g>
	<g>
		<path class="st6" d="M137.7,100.6c1.9-0.1,4.4,1.7,6,4.5c1.6,2.8,1.2,5.4,2.2,7.3c1,1.8,2.6,2.7,2.1,2.7c-2.2,0.3-3.8,0.1-6.9-1.2
			c-3.2-1.4-3.4-3.3-4.1-4.8c-0.7-1.5-4.8-3.5-6.1-4.6c-1.4-1.1,0.6-2.3,2-2.9C134.2,100.8,136.6,100.7,137.7,100.6z"/>
		<path class="st7" d="M137.9,101.2c1.8-0.1,4.1,1.6,5.5,4.1c1.5,2.6,0.9,5.3,1.8,7c0.9,1.7,2.4,2.4,1.8,2.4c-2,0.2-3.3-0.1-6.1-1.3
			c-2.9-1.3-3.2-3-3.8-4.5c-0.6-1.4-4.4-3.3-5.7-4.3c-1.2-1,0.6-2.1,1.9-2.7C134.7,101.3,136.9,101.2,137.9,101.2z"/>
		<path class="st6" d="M102.9,91.7c2.9,0,7.6,2.6,11.3,5.3c3.7,2.8,9.1,6,13,7.6c3.9,1.6,7.9,2.5,9.1,3.7c1.2,1.2,1.3-1.2-1.4-2.4
			c-2.7-1.1-1.1-2.5,1.6-3.5c1.5-0.6,3.7-1.8,1.2-2c-3.7-0.3-6,2-10.6,0.9c-2.7-0.6-5.6-2.1-7.4-6c-1.9-3.9-1.3-6.6-1.3-6.6
			L102.9,91.7z"/>
		<path class="st2" d="M104.4,90.8c2.7,0.1,5.7,2.6,9.3,5.2c3.6,2.6,9.2,6.3,12.9,7.8c3.7,1.6,7.7,2.7,9.3,3.7
			c1.4,0.9,1-0.5-1.7-1.7c-2.6-1.1-0.9-2.9,1.6-3.8c1.4-0.5,3.4-1,1.1-1.2c-3.6-0.4-5.5,2-9.8,0.8c-2.6-0.7-5.4-1.6-8-6.3
			c-1.9-3.6-1.5-6.1-1.5-6.1L104.4,90.8z"/>
		<path class="st1" d="M118.3,95c0.5,1.5,0.8,2,1.5,3.1c0.6,1,1.3,1.8,2.7,2.8c1.4,0.9,3.3,2.2,5.1,2c0.8-0.1,1.7-0.5,2.4-0.9
			c-0.9,0.1-1.8,0-2.9-0.3c-2.6-0.7-5.4-1.6-8-6.3c-0.3-0.5-0.5-1-0.7-1.5C118.2,94.1,118.2,94.4,118.3,95z"/>
	</g>
	<path class="st0" d="M8,97.1c1.8,1,7.3,5,6,8.8c-2,6.2-3,11.5-1,14.8c2,3.3,7.2,9.5,18.9,10.3c12.5,0.8,18.8-5.1,20.4-8.8
		c1.6-3.8-0.6-5,0.5-11.9c0.5-3,3.1-9,5.9-13.9c2.3-4,7.9-10.7,7.9-10.7s-24.9-0.1-36.9,3.5C17.7,92.7,8,97.1,8,97.1z"/>
	<path class="st2" d="M9.1,96.8c1.7,1,7.2,5,6,8.8c-2,6.1-3.5,11.5-1.6,14.7c1.9,3.3,7.1,9.3,18.5,10.1c12.2,0.8,18-4.6,19.6-8.3
		c1.5-3.7-0.5-5.6,0.7-12.4c0.5-2.9,3-8.8,5.8-13.6c2.2-3.9,7.9-10,7.9-10s-24.3-0.1-36.1,3.4C18,92.9,9.1,96.8,9.1,96.8z"/>
	<g>
		<path class="st0" d="M15.5,111.5c-1.3,1.3-2.1,2.3-3.2,5.5c0.1,0.3,0.2,2,0.4,2.2c1.1,2.2,2.5,5.9,7.4,7.7c0.4-1,1.6-5.5,1.9-7.7
			C23.1,110.9,18.6,108.4,15.5,111.5z"/>
		<path class="st3" d="M15.6,111.9c-1.2,1.2-2.3,2.3-3.1,5.4c0.1,0.3,0,1.2,0.8,2.9c1,2.1,2.5,4.3,6.3,6.5c0.8-1.8,1.6-4.9,1.9-7.1
			C22.8,111.4,18.6,108.9,15.6,111.9z"/>
	</g>
	<g>
		<path class="st0" d="M22.7,119.8c-1,2.8-1.4,5.2-2.2,7.6c2.4,1.1,5.2,2,8.5,2.6c1.5,0.3,2.9,0.5,4.3,0.6c1-3.6,1.5-8.2,0.1-12.2
			C31.1,112,24.5,114.4,22.7,119.8z"/>
		<path class="st3" d="M22.9,120c-1,2.8-1.4,4.6-2,7.4c2.2,1,4.7,2,7.8,2.5c1.4,0.2,2.7,0.4,4,0.5c1-3.5,1.7-7.7,0.5-11.5
			C31.2,112.8,24.8,114.8,22.9,120z"/>
	</g>
	<g>
		<path class="st8" d="M134.8,19.1c3.1,4.6,8.3,20.4,12.6,32.2c6.5,18,13.1,36.4-14,45.2c-27,8.8-38.8-10.1-38.8-33.9
			c0-23.9,15.9-47.5,15.9-47.5L134.8,19.1z"/>
		<path class="st9" d="M133.9,19.9c2.9,4.4,8.3,20.3,12.5,31.6c6.2,17.2,12.5,34.8-13.3,43.2C107.2,103.2,96,85.2,96,62.4
			C96,39.6,111.2,17,111.2,17L133.9,19.9z"/>
		<path class="st10" d="M125.6,88.6c2.6-3.4,5.7-7.1,4.8-21.8c-0.9-14.7-0.3-13,2.3-18.4c2.2-4.6,3.6-4.1,6.7-7.7
			c3.1-2.8,0.8-6.2-0.2-8.6c-3-3.6-6.6-8.2-9.8-12.7L111.2,17c0,0-2.8,4.1-5.9,10.6c-0.5,12-0.8,29.4-2.7,50.2
			c-0.3,3.3-0.5,6.2-0.7,8.7c5.4,8.5,14.8,12.7,28.6,9.1C126.1,94.5,123.2,91.8,125.6,88.6z"/>
		<path class="st8" d="M100.8,9.9c34.6-15.2,36.8,3.6,43.9,16.2c1.5,2.7,0.1,5.1-3.3,10.5c-8.6,13.6-12.8,4.6-16.6-4.6
			c-2.1-5.1-13.5-2.7-20.9,13.6C101.4,50.8,97.1,11.5,100.8,9.9z"/>
		<path class="st9" d="M100.8,10.7c31.4-13.8,34.7,3.1,42,14.2c2,3.1,1.5,5.1-1.2,9.3c-7.2,11.2-10.6,10.9-14.8-1
			c-3.1-8.9-12.7-10.8-19.5,4.3C105.1,42.5,97.4,12.2,100.8,10.7z"/>
		<path class="st10" d="M107.3,37.5c6.8-15.1,16.4-13.2,19.5-4.3c4.1,11.8,7.6,12.2,14.8,1c1.5-2.4,2.4-4.1,2.4-5.7
			c-2.3,1.1-4.8,2.5-6.8,4.2c-5.2,4.4-6.2-6-16.4-9.4c-6.1-2.1-0.6-17.8-2-17.7c-4.4,0.3-9.9,1.7-16.8,4.6c-0.7,2-1.4,4.1-2,6.3
			C101,25.5,105.7,41.2,107.3,37.5z"/>
		<g>
			<g>
				<path class="st8" d="M149.1,55.2c1.3,2.3,3.8,12.5,3.4,17.1c-0.4,4.6-0.5,8.5-7.1,9c-5.6,0.5-10.5,0.7-11.3-3.7
					c-0.9-4.3-2.4-10.1-3.1-13.8c-0.7-4,0.1-5.4,1.5-5.6c0.7-0.1,4.5-0.8,8.4-1.5C145,56,149.1,55.2,149.1,55.2z"/>
				<path class="st9" d="M148.7,55.9c1.2,2.2,3.6,11.8,3.2,16.1c-0.4,4.4-0.5,8-6.7,8.6c-5.3,0.5-9.5,0.2-10.3-3.9
					c-0.8-4.1-2.1-9.7-2.7-13.2c-0.7-3.8-0.5-4.6,0.8-4.8c0.6-0.1,4.3-0.7,8-1.4C144.8,56.6,148.7,55.9,148.7,55.9z"/>
			</g>
			<g>
				<path class="st8" d="M148.1,53.4c0,0,5.1,6,1.3,8.8c-3.6,2.7-8.2,3.7-11.7,3.5c-4.4,0.1-5.5-2.7-6.3-5.1
					c-0.8-2.3,0.1-2.4,5.2-3.4C144.5,55.7,148.1,53.4,148.1,53.4z"/>
				<path class="st9" d="M147.4,54.4c0,0,4.2,5,1,7.3c-3,2.3-9.6,3.7-12,3c-2.5-0.7-3.3-2.2-4.3-5.1c-0.3-0.9,1.1-1.1,5.5-2
					C144.4,56.3,147.4,54.4,147.4,54.4z"/>
			</g>
			<g>
				<path class="st11" d="M144.6,60.3c0,0,1.2,4.6,0.8,5.9c-0.4,1.3-0.6,1.7-2.4,2.2c-1.8,0.5-2.2-0.1-3-2.8c-0.8-2.6-1.5-3.4,0-4
					C142.1,60.6,144,59.4,144.6,60.3z"/>
				<path class="st12" d="M144.3,60.6c0,0,1,4.4,0.7,5.4c-0.3,1-0.6,1.1-2.1,1.5c-1.5,0.4-1.8-0.1-2.4-2.2c-0.6-2.1-1-3.1,0.3-3.5
					C142,61.4,144.1,60.1,144.3,60.6z"/>
			</g>
		</g>
	</g>
	<path class="st0" d="M94.3-10.3c5.9,20.1,9.4,34.2,17.5,48.7c8.1,14.5,19.4,36.1-4.3,64.5c-13.2,15.9-38.8,4.1-55.6,8.9
		c-14.4,4.1-26.3,1.7-41.3-10C-8.6,86.8-11.9,66.9-9.2,45.6C-6.6,24.2,7.3,14.2,30.6-2.6C53.9-19.5,91.4-20.1,94.3-10.3z"/>
	<path class="st1" d="M92.6-5.7c7.8,17.7,9.8,30.8,17.9,44.9c8,14.1,19.2,35.1-3.8,62.4c-12.8,15.3-29.4,3.4-58.1,9.8
		c-15.4,3.4-24.6-1.2-37-11.2c-18.7-15-22-32.7-19.5-53.4C-5.5,26.1,8,15.2,30.6-1C53.2-17.2,88.4-15,92.6-5.7z"/>
	<path class="st2" d="M109.7,80.1c6.5-13.2,1.1-29.8-5.8-48.2C97,13.6,97.1,12.5,96.6,4.2c4.8,13,7.4,23.7,13.9,35
		c8,14.1,19.2,35.1-3.8,62.4c-2.1,2.6-4.4,4.4-6.8,5.6c0.1-2.6,0.6-4.8,1.1-5.4C102.9,99.2,104.7,90.1,109.7,80.1z"/>
	<path class="st2" d="M11.5,100.2c-18.7-15-22-32.7-19.5-53.4C-6.1,31.3,2,21.2,15.4,10.4c20.4,3.4,33.4,8.7,18.9,13.4
		C8.2,32.2-1.6,43.3,5.8,43.8c7.4,0.4,15.2,3.7,21.1,11.7c7.3,9.9,8.5,15.4,8.5,23c0,7.6-1.1,14.8-5,19.8c-3.9,5-0.4,9.8,2.8,11.5
		c3.3,1.7,8.9,1.5,13.3,0.9c4.3-0.7,4.1-2.4,8-3c2.3-0.4,7.9-0.2,8.5,1.8c-4.4,0.2-9.2,0.8-14.4,1.9C33.2,114.8,24,110.2,11.5,100.2
		z"/>
	<g>
		<path class="st0" d="M51.7,108.8c2.2,0.5,11.6,3.9,11.6,8.4c0,7.2,0.9,13.1,4.1,16c3.2,2.9,10.9,7.6,23.6,4.4
			c13.5-3.4,18.1-11.8,18.4-16.3c0.3-4.5-2.4-5.1-3.6-12.8c-0.5-3.3-1.2-10.8,0.1-16.9c1-5,2.9-13.2,2.9-13.2S85.5,86.2,74,94.1
			C62.6,102,51.7,108.8,51.7,108.8z"/>
		<path class="st1" d="M49.6,108.3c2.2,0.5,14.7,1.3,14.7,8.1c0,7.1,0.2,13.3,3.4,16.1c3.2,2.8,10.7,7.4,23,4.3
			c13.2-3.3,17.4-11.1,17.8-15.5c0.3-4.4-2.4-5.7-3.6-13.3c-0.5-3.3,0.1-10.3,1.4-16.3c1-4.9,4.1-15.2,4.1-15.2s-27.8,5.2-39,12.9
			C60.2,97.1,49.6,108.3,49.6,108.3z"/>
		<path class="st2" d="M64.3,117.2c0.2,7.1,0.3,12.5,3.4,15.3c3.2,2.8,10.7,7.4,23,4.3c13.2-3.3,17.4-11.1,17.8-15.5
			c0.3-4.4-2.4-5.7-3.6-13.3c-0.5-3.3,0.1-10.3,1.4-16.3c0.5-2.3,1.6-5.4,2.6-8c-1.1,0.9-2.2,2.1-2.9,3.5c-1.7,3-2.6,5.4-3.4,12.3
			c-0.9,6.9,2.4,15.5,3.9,18.7c1.5,3.2-1.5,7.4-5.1,9.9c-3.6,2.5-6.3,0.2-8.7-4c-2.4-4.2-6.7-3.4-9.2-1.3c-2.6,2-2.9,1.9-3.9-0.5
			c-1-2.4-5.6-3.7-8.5-3c-2.9,0.7-4.1,3.5-4.4,1.5c-0.3-2,0.5-6.7,5.5-11.1c5-4.4,1-5-7.1-3.5c-1.6,0.3-5.2,1.2-6.4,1.4
			c-3.1,0.7-5.3,1.3-5.3,1.3C55.4,109.2,64.1,110.5,64.3,117.2z"/>
		<path class="st0" d="M68.8,123.8c-1.1,1.8-1.8,5-1.9,7.9c0.2,0.3,0.5,0.6,0.8,0.8c2.3,2,6.9,5,14,5.3c-0.4-2.5-0.8-5.6-1.3-8.1
			C78.5,120,71.5,119.3,68.8,123.8z"/>
		<path class="st3" d="M69.2,124.1c-1,1.8-1.6,4.9-1.7,7.7c0.2,0.3,0.4,0.6,0.7,0.8c2.1,2,6.4,4.9,13.1,5.2
			c-0.3-2.5-0.7-5.5-1.2-7.9C78.2,120.3,71.7,119.7,69.2,124.1z"/>
		<path class="st0" d="M81.6,130.2c0.3,2.8,1,5.2,1.3,7.6c2.4,0,5-0.3,7.9-1c1.3-0.3,2.6-0.7,3.7-1.1c-0.6-3.4-1.9-7.8-4.6-10.7
			C85.7,120.5,81,125,81.6,130.2z"/>
		<path class="st3" d="M82.1,130.4c0.3,2.7,0.9,5.1,1.2,7.5c2.2,0,4.6-0.3,7.3-1c1.2-0.3,2.4-0.7,3.5-1.1c-0.5-3.3-1.8-7.6-4.2-10.4
			C85.8,120.9,81.6,125.3,82.1,130.4z"/>
	</g>
	<path class="st8" d="M105.4,7c0,0-33.6,11.2-43.8,33.6C51.4,63.1,61,65.4,61,65.4l11.3-7.3c0,0,5.2-14.7,12.5-21.3
		c9.2-8.4,20-9.1,23.4-10.8C111.6,24.3,109.3,6.5,105.4,7z"/>
	<path class="st10" d="M104.3,8.8c0,0-31.7,10.8-41.2,31.7c-9.5,21-0.5,23.1-0.5,23.1l10.6-6.8c0,0,3.3-14.6,10.3-20.6
		c12.6-10.9,20.9-9.9,24.1-11.5C110.7,23.1,108,8.2,104.3,8.8z"/>
	<path class="st8" d="M67.1,74.7c9.4,9.7,35.5,25.1,45.7,23.2c3.4-0.6,5.8-11.7,7.2-16.1c0.8-2.4-10.2,0-19.3-1.9
		c-8.5-1.8-21.2-6.7-24.9-8.2C72,70.2,63.7,71.2,67.1,74.7z"/>
	<path class="st10" d="M66.7,72.9c9.4,9.7,35.9,25.5,46.1,23.6c3.4-0.6,7.9-9.2,7.2-13.7c-0.4-2.2-10.6,0.6-19.7-1.3
		c-8.5-1.8-20.8-8.2-24.6-9.7C72,70.2,63.3,69.3,66.7,72.9z"/>
	<g>
		<path class="st13" d="M6.2,47.1C-3,49-6.9,62.6-2.4,77.7c4.4,15.1,15.6,25.5,25,23c9.4-2.5,13.4-16.5,8.8-31
			C26.7,55.2,15.4,45.2,6.2,47.1z"/>
		<path class="st14" d="M6.3,47.6c-9.1,1.9-12.8,15.2-8.5,30c4.3,14.9,15.3,25,24.6,22.6c9.3-2.5,13.2-16.2,8.6-30.5
			C26.5,55.5,15.4,45.7,6.3,47.6z"/>
	</g>
	<g>
		<path class="st0" d="M75.7,86.5c3.2-1.4,15.9-8,21.3-13.6c4.8-5,7.7-7.5,8.1-9c1.4-4.6,1-8.7-1.6-14.8
			c-3.2-7.4-8.9-12.2-12.4-11.8C77,39.3,73.8,47.9,71.9,48.8C69.1,50.1,75.7,86.5,75.7,86.5z"/>
		<path class="st1" d="M76.5,85.3c3.1-1.4,16.6-9.9,22-11.9c6.3-2.4,13.7-3.1,13.7-4.5c-0.4-9.9-0.2-14.3-3.6-19.8
			c-7.1-11.2-11.7-14.9-16.2-13.2C79.4,40.9,72.7,49,70,50.1C67.2,51.2,76.5,85.3,76.5,85.3z"/>
		<g>
			<path class="st0" d="M50.9,87.2c2.8,2.8,7.8,5.9,14.5,4.1c6.8-1.8,19.2-7.4,26.9-19.6c3.1-4.9-5.1-20.9-8.8-24.6
				c-5.3-5.4-13.6-5.3-20-3.7c-10.3,2.7-13,7.1-14.5,9.2c-1.5,2.1-3.9,11.4-2.7,21C47.6,83.3,49.1,85.4,50.9,87.2z"/>
			<path class="st1" d="M51.1,86.7c2.8,2.8,8.2,5.8,14.9,4c5.3-1.4,16.7-7.4,23.6-14.8c1.9-2,5.5-4,6.5-6.1c2.5-5.2-2.7-17-6.8-20.3
				c-7.9-6.3-17.9-7.5-24.7-5.8c-8.8,2.3-12,5.2-13.5,7.3c-1.5,2.1-5.9,13.1-4.7,22.7C47.6,83.3,49.3,84.9,51.1,86.7z"/>
			<path class="st2" d="M86.4,78.6c-2.8,1.8-7.6,5.1-10.9,4.6c-3.3-0.5-1.8-5.8-0.8-12.9c1-7.1-1.8-12.9-4-15.9
				c-2.2-3-2.7-6.7-1.7-8.7c0.5-1-0.2-1.9-1.4-2.6c-1.1,0.1-2.1,0.3-3.1,0.6c-8.8,2.3-12,5.2-13.5,7.3c-1.5,2.1-5.9,13.1-4.7,22.7
				c1.2,9.6,2.8,11.2,4.7,13c2.8,2.8,8.2,5.8,14.9,4c4.8-1.3,14.3-6.2,21.3-12.5C87,78.3,86.7,78.4,86.4,78.6z"/>
			<g>
				<path class="st0" d="M52.8,49.6c3.7-3.9,11.2-6.6,14-4.6c2.2,1.6-3.1,5.2-5.1,6.5C58.2,53.7,52.8,49.6,52.8,49.6z"/>
				<path class="st3" d="M53.6,49.7c3.5-3.7,10.5-6.1,12.9-4.5c2.3,1.6-3.1,4.6-5.1,5.8C58.2,53,53.6,49.7,53.6,49.7z"/>
			</g>
			<g>
				<path class="st0" d="M72.6,64.7c-0.9-12.5-9.2-21.5-17.6-17.4c-8.2,4-10.9,13.5-9.9,25.1c1,11.7,7.5,20.2,16.1,17.9
					C69.7,88.1,73.7,80.5,72.6,64.7z"/>
				<path class="st4" d="M72,64.9c-0.9-12.3-8.9-21.1-17.1-17.1c-8,3.9-10.6,13.2-9.6,24.6c1,11.4,7.3,19.8,15.7,17.6
					C69.2,87.7,73.1,80.4,72,64.9z"/>
				<path class="st5" d="M69.5,66.6c-0.1-1.2-1.2-8-2.5-11.2c-2-4.8-7.2-7.6-10-7c-2.8,0.6-7,2.5-9.1,8.6c-2.1,6.1-1.4,17-1.1,19.3
					c0.4,2.3,2.7,3.5,4.3-1c1.3-3.6,7.7-3.8,10,2.1c2.3,5.9,6.5,4.3,7.5,1.1C69.6,75.4,69.9,70.9,69.5,66.6z"/>
			</g>
		</g>
	</g>
	<path class="st1" d="M39.1,24.5L39.1,24.5C39.1,24.5,39.1,24.5,39.1,24.5z"/>
	<path class="st1" d="M39.1,24.5L39.1,24.5C39.1,24.5,39.1,24.5,39.1,24.5z"/>
	<path class="st6" d="M56.3-67.9c3.1-2.2,18-9.6,29.6-0.6c11.6,9,22.8,21.5,24,32.7c1.2,11.2-0.1,17.4-1.7,22.9
		c-2.7,9.2-7.8,16.8-15.1,20c0,0-57.4-15.6-56.4-15.4C37.8-8.1,56.3-67.9,56.3-67.9z"/>
	<path class="st1" d="M54.9-65.4C58-67.7,73.1-77,84.7-68.1c11.6,9,21.1,11.5,22.3,22.7c1.2,11.2,0.8,25.8-0.9,31.3
		c-1.6,5.5-9.6,18.2-9.6,18.2s-62-12.2-61-12C36.6-7.7,54.9-65.4,54.9-65.4z"/>
	<path class="st2" d="M68.2-29.9c0.6-5.5,7.4-11.2,16.8-10.9c7.4,0.3,2.8-18.5,0.7-23.4c-1.8-4.1-5.8-5.8-9.1-7.4
		c-9.6-1.5-19.2,4.5-21.6,6.2c0,0-2.5,7.8-5.7,17.7C57.9-36.2,67.8-26.7,68.2-29.9z"/>
	<path class="st6" d="M37-56.6c0,0,5.1-11,15.9-14.7c7.2-2.5,13.4-0.4,14.5,6.1c1.2,6.5-14.6,23.7-14.6,23.7L37-56.6z"/>
	<path class="st15" d="M38.5-57c0,0,4.7-10.2,14.8-13.7c6.7-2.3,12.5-0.4,13.5,5.6C67.9-59,53.2-43,53.2-43L38.5-57z"/>
	<g>
		<path class="st6" d="M50.9-40.9c-2.6-7.6,0.7-18.4,11.2-24.5c10.3-5.5,19.5-3.2,22.2,3.9c2.7,6.8-3.4,16.5-13.9,22.5
			C59.8-32.4,53.5-33.6,50.9-40.9z"/>
		<path class="st15" d="M47.3-40.4c-2.4-7.1,3.9-18.2,13.7-24c9.7-5.2,19.5-3.4,22,3.1c2.5,6.3-3.3,15.4-13.2,21.1
			C59.8-33.8,49.7-33.5,47.3-40.4z"/>
	</g>
	<g>
		<path class="st6" d="M-20.3-76.3c0.7-1.9,5.8-3.3,10.7-1.2c4.9,2.2,6.7,7.9,6.7,7.9l-4.6,0.9L-20.3-76.3z"/>
		<path class="st1" d="M-20.3-76.1c0.7-1.9,5.4-3.1,10.2-0.9c4.9,2.2,7.2,7.6,7.2,7.6l-4.6,0.9L-20.3-76.1z"/>
		<path class="st6" d="M-21-69.6c0,0-0.6-2.7-0.2-4.8c0.4-2.1,1.5-3.9,5.1-3.6c3.9,0.3,5.8,2.6,6.7,4.3c1,1.7,2.3,5.1,2.3,5.1
			s-3.9-0.4-7.7-0.8C-18.4-70-21-69.6-21-69.6z"/>
		<path class="st1" d="M-20.4-69.7c0,0-0.5-2.1-0.2-4.1c0.4-2,1.4-3.7,4.8-3.4c3.5,0.3,5.3,2.6,6.2,4.3c0.9,1.6,2.7,4.8,2.7,4.8
			s-4.1,0.1-7.7-0.3C-18.2-68.9-20.4-69.7-20.4-69.7z"/>
	</g>
	<path class="st6" d="M69-27.7c-0.1-0.6-8-22.9-29.6-36.1C22.2-74.4,7.8-79.2-12.8-74.4c-27.8,6.5-39,46.9-22.5,68
		c16.5,21,34.2,26.1,43.1,28c36.3,7.7,83.8-9.8,89.4-17.3C102.2-2.5,70.4-19.3,69-27.7z"/>
	<path class="st1" d="M73.2-25c-0.2-0.1-4.4-3.2-7.4-8.5c-5-8.6-14-21.4-27.1-29.4C21.9-73.2,7.9-77.9-12.2-73.2
		c-27.1,6.4-38,45.8-21.9,66.3C-18,13.5-2.1,18,6.6,20c30.8,7.1,87.8,1.1,92-21.5C100-9,85.6-21,73.2-25z"/>
	<path class="st16" d="M-34.7-15.2c4.9,3.1,9.8,6.1,8.6-9.2c-1.2-15.3-0.6-27.6,3.7-30.6c4.3-3.1,3-9.2,7.9-13.5
		c5-4.3,8.6-5.5,16-4.9c7.3,0.6,25.1,3.1,29.4,8c4.3,4.9,11.6,13.5,17.1,14.7c1.4,0.3,3.4,0.4,5.6,0.4c-4.2-4.6-9.1-9-14.9-12.5
		C21.9-73.2,7.9-77.9-12.2-73.2c-23.7,5.6-35,36.5-26.6,57.9C-37.9-16.4-36.4-16.3-34.7-15.2z"/>
	<g>
		<path class="st6" d="M-4.6-75.4c1.2-3.9,10.3-6.6,19.2-2c8.9,4.6,12.6,16.1,12.6,16.1l-8.3,2L-4.6-75.4z"/>
		<path class="st1" d="M-4.5-74.9c1.2-3.9,9.9-6.4,18.8-1.8c8.9,4.6,13.1,15.9,13.1,15.9l-8.3,2L-4.5-74.9z"/>
		<path class="st6" d="M-5.4-64.3c0,0-1.4-2.8-0.7-7.1c0.7-4.4,2.8-8.2,9.4-7.6c7.1,0.7,10.6,5.4,12.3,9c1.8,3.6,4.2,10.6,4.2,10.6
			s-7.2-0.8-14.1-1.8C-1.2-62-5.4-64.3-5.4-64.3z"/>
		<path class="st1" d="M-5.2-62.6c0,0-0.8-3.9-0.2-8.1c0.7-4.2,2.5-8,8.9-7.4c6.3,0.7,10.1,5,11.8,8.5C17-66.1,20-58.7,20-58.7
			s-7.5,0.3-14.2-0.6C-0.8-60.2-5.2-62.6-5.2-62.6z"/>
		<g>
			<path class="st6" d="M-0.6-63c0,0-0.2-3.2,0.6-4.8c1.2-2.5,5.1-4.6,8.7-0.9c3,3.1,4.2,6.2,4.2,6.2L-0.6-63z"/>
			<path class="st17" d="M-0.2-64c0,0-0.1-2.3,0.6-3.7c0.9-2.1,5.2-3.8,8.3-0.2c2.5,2.9,3.3,5,3.3,5L-0.2-64z"/>
		</g>
		<g>
			<path class="st6" d="M-1.8-64c0,0,2.7-3.9,8.2-2.4c5.5,1.4,8.8,5.5,8.8,5.5s-4.2-0.1-9-0.6C0.6-62.1-1.8-64-1.8-64z"/>
			<path class="st1" d="M-2.6-63.4c0,0,3.5-3.9,9.1-2.5c5.5,1.4,9.3,5.6,9.3,5.6s-4.7,0.1-9.5-0.4C0.6-61.3-2.6-63.4-2.6-63.4z"/>
		</g>
	</g>
	<path class="st18" d="M27.3-38.2c0.3-0.7,1.3-0.9,2.1-0.6c0.9,0.4,1.3,1.3,1,2c-0.3,0.7-1.3,1-2.1,0.6C27.4-36.7,27-37.5,27.3-38.2
		z"/>
	
		<ellipse transform="matrix(-0.9414 -0.3373 0.3373 -0.9414 102.6917 -49.3016)" class="st18" cx="47.1" cy="-33.6" rx="1.7" ry="1.4"/>
	
		<ellipse transform="matrix(-0.9412 -0.3378 0.3378 -0.9412 91.7916 -21.7832)" class="st18" cx="44" cy="-18.9" rx="1.7" ry="1.4"/>
	<path class="st6" d="M9.6,11.5c0,0,8.7,0,13.3-2.1c4.7-2.1,7-3.3,6.8-2c-0.3,1.3-4.1,2.7-8.7,3.6C16.4,12,10,12,9.6,11.5z"/>
	<g>
		
			<ellipse transform="matrix(-0.2823 -0.9593 0.9593 -0.2823 129.332 -15.4283)" class="st6" cx="58.9" cy="-56.1" rx="2.5" ry="3.1"/>
		<path class="st19" d="M60.2-56.2c0.4-0.1,0.9,0.1,1,0.4c0.1,0.4-0.2,0.8-0.6,0.9c-0.4,0.1-0.9-0.1-1-0.4
			C59.5-55.6,59.8-56,60.2-56.2z"/>
		
			<ellipse transform="matrix(-0.2831 -0.9591 0.9591 -0.2831 128.138 -17.1303)" class="st19" cx="57.7" cy="-56.5" rx="0.3" ry="0.4"/>
	</g>
	<path class="st2" d="M109.1-33.2c-0.7-6.3-9.1-15.8-12.7-21.8c-8.2-1.9-23.6,14.6-21,13.8c5.8-1.8,24.2,1.8,25.5,17.4
		c1.3,15.9-6.5,27.5-6.8,30.4c6.3-4.3,11.7-14.6,12.1-16.1C107.8-14.9,110.3-22,109.1-33.2z"/>
	<path class="st20" d="M-27.6-60.5c-1.9,3.2-6.3,7.7-9.2,20.3c-1.6,6.8-0.9,13.2,0,17.9c-0.7-4.9-1-12,0.1-17
		C-34.5-49.4-29.9-57.1-27.6-60.5z"/>
	<path class="st20" d="M-28.2-53.2c-1-0.4-2.4-0.6-3.8-0.6c-1.3,0-2.5,0.2-3.4,0.5c1-0.1,2-0.2,3.2-0.2
		C-30.8-53.6-29.4-53.5-28.2-53.2z"/>
	<path class="st20" d="M-32.9-37.7c-1-0.5-2.3-0.9-3.7-1.1c-1.3-0.1-2.5-0.1-3.5,0.1c1,0,2,0.1,3.2,0.2
		C-35.5-38.3-34.1-38.1-32.9-37.7z"/>
	<g>
		
			<ellipse transform="matrix(-0.4053 -0.9142 0.9142 -0.4053 128.0486 -44.3711)" class="st6" cx="49.6" cy="-63.8" rx="1.7" ry="2.1"/>
		
			<ellipse transform="matrix(-0.4061 -0.9138 0.9138 -0.4061 129.3866 -43.0476)" class="st19" cx="50.7" cy="-63.6" rx="0.5" ry="0.6"/>
		<path class="st19" d="M48.6-64.2c0.2-0.1,0.3,0,0.4,0.1c0.1,0.1,0,0.3-0.2,0.3c-0.1,0.1-0.3,0-0.4-0.1
			C48.4-64,48.5-64.1,48.6-64.2z"/>
	</g>
	<g>
		<path class="st6" d="M19.8,17.2c0,0,2.5,0.7,5.5-0.2c3-0.9,6.8-2.9,4-1.1c-2.3,1.5-4.4,2.2-7,2.5C19.8,18.5,18.2,17.5,19.8,17.2z"
			/>
		
			<ellipse transform="matrix(-0.9773 0.2117 -0.2117 -0.9773 51.3883 24.2819)" class="st2" cx="24.4" cy="14.9" rx="4.5" ry="1.8"/>
	</g>
	<g>
		<path class="st21" d="M86.8-58.8c0.9-4.1,5.4-6.3,9.4,0c0.7,1.1,1.5,2.1,2.2,2.9c-0.8-2.9-1.6-5.6-2.4-7.6
			c-3.9-10-17.7-21.7-23.6-19c-7.4,3.4-2.5,16.7,0.1,19.7c3.8,4.4,5.4,6,11.2,9.6C85.8-52.3,85.9-54.7,86.8-58.8z"/>
		<g>
			<path class="st22" d="M72.1-81.3c0,0-21.5-8.5-20.3-2.6c1,5.2,2.6,10.6,10.2,20.9c5.3,7.1,12.6,14.9,22.7,22.2
				c24.8,17.9,38.5,17.8,36.9,12.5c-1.6-5.3-8.5-19.8-8.5-19.8s-10.7-4-22.6-13.9C78.7-71.9,72.1-81.3,72.1-81.3z"/>
			<g>
				<path class="st9" d="M72.5-80.6c0,0-20-7.9-19.7-2.3c0.2,3.4,4.1,13.3,15.7,26.3c4.3,4.8,9.6,9.7,16,14.4
					c24.1,17.4,37.5,18.2,36,13.1c-1.5-5.2-8.2-19.3-8.2-19.3s-10.4-3.9-21.9-13.5C78.9-71.4,72.5-80.6,72.5-80.6z"/>
			</g>
			<g>
				<path class="st23" d="M120.5-29.1c-1.5-5.2-8.2-19.3-8.2-19.3s-10.4-3.9-21.9-13.5c-2.4-2-4.6-4-6.5-5.8
					c-2.6,1.1-3.4,2.3-1.3,3.5c9,5.5,8.6,5.8,14.7,12.3c6.1,6.6,13.8,17.2,10.1,18.1c-3.8,0.9-13.2-2.4-18.9-6.2
					c-1.3-0.9-3.1-1.9-4.9-3c0.3,0.3,0.7,0.5,1,0.8C108.6-24.7,122.1-24,120.5-29.1z"/>
			</g>
			<g>
				<path class="st22" d="M73.2-82c0-6.3,12.4-18,28.2-12.7c14.6,4.8,18.6,17.6,17.3,29c-1.3,11.4-4.2,17.9-4.2,17.9
					S101.7-50,91-60.3C80.4-70.6,73.2-82,73.2-82z"/>
				<path class="st9" d="M74.9-85.2c-0.1-1.3,10.2-14.7,26.4-8.6c13.9,5.2,16.3,16.8,15,27.7c-1.3,11-2.5,17.3-2.5,17.3
					s-12.3-2.1-22.5-12.1C81-70.8,74.9-85.2,74.9-85.2z"/>
				<path class="st23" d="M113.8-48.8c0,0,2.7-7.8,4-18.7c0.8-6.5-1.3-11.8-4.7-17.3c0.4,3.7,1,9-0.2,13.4
					c-2.1,7.3-6.7,11.8-11.6,9.1C96.4-65,77.5-79.8,80.5-74.9c1.7,2.7,16.1,18.2,22.5,22.3C109-49.6,113.8-48.8,113.8-48.8z"/>
				<g>
					<path class="st24" d="M70-79.7c-0.4-1.3,0.7-3.8,1.4-3.3c0.7,0.5,0.7-0.1,1.4-1.9c0.7-1.8,1.4-2.8,2.1-1.4
						c1.2,2.3,7.8,13.2,19.7,22c12.7,9.5,16.6,11.2,19.3,11.8c2.8,0.6,2,1.4,0.9,4.7c-1,3.3,0.6,4.7-5.7,2.9
						c-6.4-1.8-17.4-9.5-26.9-18.8C72.6-73.1,70.6-78,70-79.7z"/>
					<path class="st25" d="M70.4-80.3c-0.5-1.3,0.6-2.5,1.3-2.1c0.7,0.5,0.6-0.5,1.3-2.3c0.7-1.8,0.8-3.6,1.5-0.9
						c0.8,2.7,7.9,13.2,19.8,22c12.7,9.5,16,10.6,18.8,11.2c2.8,0.6,2.3,1.1,1.3,4.4c-1,3.3,1,4.1-5.4,2.3
						c-6.4-1.8-16.9-9.3-26.5-18.6C73-73.5,71.1-78.5,70.4-80.3z"/>
					<path class="st26" d="M75.4-73.8c-2.2-3.9-2-6.8,0-4.1c2.1,2.7,4.6,4.9,3.8,2.3c-0.8-2.6,8,7,15.2,12.1
						c-11.9-8.8-18.4-19.9-19.8-22c-0.5-0.8-0.8-0.9-1.5,0.9c-0.7,1.8-0.6,2.8-1.3,2.3c-0.7-0.5-1.8,0.8-1.3,2.1
						c0.6,1.7,2.6,6.8,12.1,16.1c4.7,4.5,9.6,8.6,14.1,11.9c-1.8-2.4-3.8-4.8-6.2-6.8C84.6-64.1,77.5-69.9,75.4-73.8z"/>
					<path class="st24" d="M71.5-82.5c0.9,0.4,2.3,2.5,1.7,1.3c-0.7-1.2-1.1-1.6-1.4-1.6C71.4-82.9,71.5-82.5,71.5-82.5z"/>
				</g>
			</g>
		</g>
	</g>
	<g>
		<g>
			<g>
				<g>
					<path class="st0" d="M81.4-71.5c0,0,2.4-0.6,3-4.2c0.6-3.6-0.9-6.7-3-6.4c-1.6,0.2-3.2,1.6-2.5,4.5
						C79.6-74.7,81.4-71.5,81.4-71.5z"/>
					<path class="st27" d="M81.5-72c0,0,2.2-0.6,2.8-3.9c0.6-3.4-0.9-6.3-2.8-6c-1.5,0.2-3,1.5-2.4,4.2C79.7-75,81.5-72,81.5-72z"/>
				</g>
				<path class="st28" d="M81.5-72c0,0-1.8-3-2.4-5.7c0-0.2-0.1-0.3-0.1-0.5c0.4,0.8,0.8,1.7,1.2,2.4c1.3,2.1,1.9,1.2,2.3,0.7
					c0.3-0.5,0.9-0.8,1,0c0.1,0.5,0.5-0.4,0.9-1.8c0,0.3-0.1,0.7-0.1,1C83.7-72.6,81.5-72,81.5-72z"/>
			</g>
			<path class="st29" d="M83.1-80.1c0.2-0.2-0.1-0.7-0.5-1c-0.5-0.4-0.9-0.6-1.1-0.4c-0.2,0.2,0.1,0.7,0.5,1
				C82.5-80.1,83-80,83.1-80.1z"/>
		</g>
		<g>
			<g>
				<g>
					<path class="st0" d="M90.8-67.7c2.3,1.3,4.2-1,3-4c-1.2-3-4.3-5.1-5.8-4.6c-1.5,0.5-2.4,1.4-3.5,2.6C83.4-72.5,82-71,82-71
						S86.4-70.2,90.8-67.7z"/>
					<path class="st27" d="M90.8-67.9c2.2,1.2,4-0.9,2.8-3.8c-1.2-2.9-4.1-4.9-5.6-4.5c-1.4,0.4-2.3,1.3-3.3,2.4
						c-1,1.1-2.4,2.6-2.4,2.6S86.5-70.3,90.8-67.9z"/>
				</g>
				<path class="st28" d="M84.7-73.7c1-1.1,1.9-2,3.3-2.4c0.2-0.1,0.5-0.1,0.7,0c-0.9,0.6-2.1,1.5-2.9,2.4c-1.7,1.9-0.1,1.5,0.5,1.3
					c0.6-0.2,0.2,0.6-0.4,1.2c-0.5,0.6,0.5,1,2.7,2c0.4,0.2,0.7,0.4,0.8,0.6c-3.8-1.9-7.2-2.5-7.2-2.5S83.7-72.6,84.7-73.7z"/>
			</g>
			<path class="st29" d="M92.2-72.5c0.3-0.3-0.2-1.2-1.1-2c-0.9-0.8-1.8-1.1-2.1-0.8c-0.3,0.3,0.2,1.2,1.1,2
				C90.9-72.5,91.9-72.2,92.2-72.5z"/>
		</g>
		<g>
			<g>
				<path class="st0" d="M82-70.5c0,0-4.4,0-7.4,1.7c-2.4,1.4-6.9,2-7.3-1.8c-0.3-3,1-5,4.9-5.8c3.9-0.8,9.8,4.7,9.8,4.7L82-70.5z"
					/>
				<path class="st27" d="M81.6-70.7c0,0-4.2,0-7.1,1.6c-2.3,1.3-6.6,2-6.9-1.7c-0.3-2.9,1-4.8,4.7-5.6c3.7-0.8,9.3,4.4,9.3,4.4
					L81.6-70.7z"/>
			</g>
			<path class="st28" d="M78.1-70.9c-1.2-0.2-1.2-1-3.4-1.4c-2.2-0.3-3.9-0.8-1.7-1.2c2.2-0.4,3.1-1.2,2.4-1.4
				c-0.7-0.3-1.9-0.8-0.2-0.9c0.3,0,0.5-0.1,0.6-0.1c3,1.2,5.9,3.9,5.9,3.9l0,1.1c-0.1,0.1-0.2,0.1-0.4,0.2c-0.6,0-1.7,0.1-3,0.3
				C78.6-70.7,78.7-70.9,78.1-70.9z"/>
		</g>
		<g>
			<g>
				<path class="st0" d="M83.2-68.8c0,0.8,1.5,4.9,1.9,8.2c0.4,3.3,0.5,6.4-3.3,3.8c-3.9-2.7-6-6.1-5.2-9.9c0.8-3.8,5.6-3.6,5.6-3.6
					L83.2-68.8z"/>
				<path class="st27" d="M81.2-69.9c0,0,0.1,0,0.1,0c0.4,0,0.6,0,0.6,0l1.1,1.4c0,0.8,1.5,4.7,1.8,7.9c0.3,3.2,0.5,6.2-3.2,3.6
					c-0.8-0.5-1.5-1.1-2.1-1.7c-0.1-0.1-0.2-0.2-0.4-0.3c-0.1-0.1-0.1-0.1-0.2-0.2c0,0,0,0,0,0c-2-2.1-2.9-4.7-2.4-7.3
					C77.3-69.3,79.4-69.9,81.2-69.9z"/>
				<path class="st29" d="M79.3-60.6c-0.6,0.2-1.6-0.9-2-2.4c-0.5-1.5-0.3-3,0.3-3.2c0.6-0.2,1.6,0.9,2,2.4
					C80-62.2,79.9-60.8,79.3-60.6z"/>
			</g>
			<path class="st28" d="M81.2-69.9c0,0,0.1,0,0.1,0c0.4,0,0.6,0,0.6,0l1.1,1.4c0,0.4,0.4,1.6,0.8,3.1c-0.2-0.2-0.3-0.2-0.4,0
				c-0.3,0.6-0.6,0.3-0.9-1c-0.3-1.3-0.8-2.4-1.9-2c-1,0.4-2.5,1.4-2.1,0.6c0.4-0.8,0.2-1.4-1.3-0.2C78.2-69.5,79.8-69.9,81.2-69.9z
				"/>
		</g>
		<g>
			<path class="st0" d="M84.1-69.4c0,0,4.2,0.1,6.3,2.9c2.2,2.9,2.7,7.8-0.1,7.6c-2.8-0.2-4.5-2.3-5.4-5.6
				C84-67.8,84.1-69.4,84.1-69.4z"/>
			<path class="st27" d="M84.3-69.2c0,0,4,0,6,2.8c2.1,2.7,2.5,7.4-0.1,7.2c-2.7-0.2-4.3-2.2-5.1-5.3C84.2-67.6,84.3-69.2,84.3-69.2
				z"/>
			<path class="st28" d="M84.3-69.2c0,0,2.6,0,4.7,1.5c-0.5-0.2-1-0.3-1.4-0.4c-1.1-0.3-1.7-0.2-1.4,0.7c0.2,0.9,0.2,2.2-0.3,1.5
				c-0.5-0.6-0.7-0.1-0.8,0.9c0,0.1,0,0.2-0.1,0.3C84.2-67.7,84.3-69.2,84.3-69.2z"/>
			<path class="st29" d="M90.6-63.8c0.3-0.2,0.2-1-0.3-1.8c-0.5-0.8-1.1-1.3-1.4-1.1c-0.3,0.2-0.2,1,0.3,1.8
				C89.6-64.1,90.2-63.6,90.6-63.8z"/>
		</g>
		<g>
			<path class="st0" d="M85-68c0.7-0.8,0.4-2.9-1.4-4.5c-1.8-1.5-4-1.7-4.8-0.9c-0.7,0.8,0.3,2.4,2.1,3.9C82.7-67.9,84.2-67.2,85-68
				z"/>
			<path class="st30" d="M84.7-68.4c0.7-0.8,0.3-2.7-1.3-4.1c-1.6-1.4-3.7-1.6-4.3-0.8c-0.7,0.8,0.3,2.2,1.9,3.6
				C82.6-68.3,84-67.7,84.7-68.4z"/>
			<path class="st31" d="M84.7-68.4c-0.7,0.8-2.1,0.1-3.7-1.3c-1.3-1.2-2.2-2.3-2.1-3.1c0.3,0.2,0.7,0.4,1,0.6
				c1.1,0.5,1,0.6,1.2,1.2c0.2,0.6,1.7,1.7,2.6,1.6c0.5-0.1,0.7-1,0.6-2.1C85.1-70.4,85.2-69,84.7-68.4z"/>
			
				<ellipse transform="matrix(0.7542 0.6566 -0.6566 0.7542 -27.0274 -72.1856)" class="st32" cx="82.9" cy="-72.2" rx="1.2" ry="0.3"/>
		</g>
		<path class="st27" d="M81.6-70.7c0,0-0.1,0-0.4,0c0.1-0.1,0.3-0.1,0.4-0.2L81.6-70.7z"/>
		<path class="st29" d="M71.4-73.9c0.9-0.4,1.4-1,1.2-1.5c-0.2-0.4-1-0.5-1.9-0.1c-0.9,0.4-1.4,1-1.2,1.5
			C69.7-73.6,70.6-73.5,71.4-73.9z"/>
	</g>
	<g>
		<path class="st0" d="M89-37.7c0,0,7.4-3.2,11.2-8.1c3.7-5,6.5-11.9,13.5-12.1c7.3-0.3,10,1.3,13,5.9c2.9,4.6,1.3,9.8-0.9,13
			c-2.2,3.2-5.2,5.5-14,5.8c-8.7,0.3-12.9,1.9-15.6,3.2c-2.7,1.3-5.6,1.3-6.3-2.2C89.2-35.6,89-37.7,89-37.7z"/>
		<path class="st1" d="M87.6-37.6c0,0,8.7-1.4,13.2-7.6c3.7-5,5.4-11.5,12.6-11.8c6.5-0.2,9.9,0.5,12.9,5.1c2.9,4.6,1.2,9.1-1,12.4
			c-2.2,3.2-5.6,5.6-14.4,5.9c-8.7,0.3-12.7,2.1-15.1,3.6c-4.6,2.9-7,2.5-7.6-1C87.5-34.4,87.6-37.6,87.6-37.6z"/>
		<g>
			<path class="st0" d="M92.7-36.6c0,0,7.2-4.4,10.1-7.2c4.2-4,8.4-7.4,10.1-3.6c1.5,3.4-0.5,8.2-6.7,9.6
				c-7.2,1.6-13.3,3.4-13.3,3.4L92.7-36.6z"/>
			<path class="st33" d="M93.1-36.8c0,0,6.8-3.8,9.6-6.5c4-3.9,8.2-7.6,9.9-3.8c1.4,3.2-1.1,7.9-7.1,9.3c-7,1.6-12.2,3.3-12.2,3.3
				L93.1-36.8z"/>
			<g>
				<path class="st0" d="M94.7-39.2c0,0,2.4,2.9-0.1,7.1c-1.3,2.3-4.2-2.6-4.2-2.6L94.7-39.2z"/>
				<path class="st1" d="M94.3-39.6c0,0,2.1,4.2-0.4,8.4c-1.3,2.3-4-3.4-4-3.4L94.3-39.6z"/>
			</g>
		</g>
		<path class="st2" d="M114.5-35.6c4.2-0.4,9.2-4.2,10.6-6.7c2.5-4.5,1-9.6,1.1-9.5c2.9,4.6,1.2,9.1-1,12.4
			c-2.2,3.2-5.6,5.6-14.4,5.9c-6.8,0.3-10.6,1.4-13.2,2.6c0.5-0.5,2.2-1.6,3.2-2C103.3-33.9,106.9-34.8,114.5-35.6z"/>
		<path class="st16" d="M118.8-53.7c-2.5,1.5-1.2-2-6.9-0.9c-4.2,0.8-6.3,3.1-8.1,4.7c2.2-3.6,4.5-6.8,9.5-7
			c4.8-0.2,7.9,0.2,10.4,2.2C121.8-54.7,120-54.4,118.8-53.7z"/>
	</g>
</g>
</svg>
